<svg width="922" height="583" fill="none" xmlns="http://www.w3.org/2000/svg"><path d="M274.859 301.124c103.023-7.613 201.225 28.861 299.325 53.549 33.709 8.488 69.475 15.717 104.55 11.238 56.089-7.164 98.13-42.717 124.506-80.297 26.376-37.58 42.041-79.19 72.105-115.193 12.241-14.666 28.067-28.664 46.655-38.96v465H43.981C23.556 534.434 22.733 468.3 60.307 411.694c40.262-60.625 124.211-103.9 214.552-110.57Z" fill="#ACDBDF"/><path d="M220.378 694.002c40.57-40.57 40.57-106.348 0-146.918-40.571-40.571-106.348-40.571-146.919 0-40.57 40.57-40.57 106.348 0 146.918 40.571 40.571 106.348 40.571 146.919 0Z" fill="#D7EAEA"/><path d="M1025.74 124.038c-27.644 33.75-42.953 75.68-57.462 116.821-14.51 41.141-29.118 83.202-55.739 117.773-26.61 34.571-67.915 60.962-111.444 58.049-85.261-5.716-141.196-99.781-220.84-124.705-25.635-8.027-55.618-6.997-76.993 9.264-29.906 22.745-33.399 68.978-16.492 102.53 16.908 33.553 49.267 56.494 82.272 74.442a525.513 525.513 0 0 0 79.107 34.911c34.363 11.881 71.606 21.145 97.35 46.824 32.633 32.556 25.942 58.038 8.027 81.735h363.314V86.905h-50.07c-15.37 10.326-29.28 22.788-41.03 37.133Z" fill="#27496D"/><g opacity=".7" fill="#fff"><g opacity=".7"><path opacity=".7" d="M435.292 241.045a1.533 1.533 0 1 0 0-3.065 1.533 1.533 0 0 0 0 3.065ZM449.046 241.045a1.533 1.533 0 1 0 0-3.066 1.533 1.533 0 0 0 0 3.066ZM462.81 241.045a1.533 1.533 0 1 0 0-3.065 1.533 1.533 0 0 0 0 3.065ZM476.564 241.045a1.533 1.533 0 1 0 0-3.065 1.533 1.533 0 0 0 0 3.065ZM490.329 241.045a1.533 1.533 0 1 0 .001-3.067 1.533 1.533 0 0 0-.001 3.067ZM505.616 239.512c0 .843-.69 1.533-1.533 1.533a1.53 1.53 0 0 1-1.533-1.533c0-.843.69-1.533 1.533-1.533a1.53 1.53 0 0 1 1.533 1.533ZM517.837 241.045a1.533 1.533 0 1 0 0-3.066 1.533 1.533 0 0 0 0 3.066ZM533.124 239.512c0 .843-.69 1.533-1.533 1.533a1.53 1.53 0 0 1-1.533-1.533c0-.843.689-1.533 1.533-1.533.854 0 1.533.679 1.533 1.533ZM545.356 241.045a1.533 1.533 0 1 0 0-3.065 1.533 1.533 0 0 0 0 3.065ZM560.642 239.512c0 .843-.69 1.533-1.533 1.533a1.53 1.53 0 0 1-1.533-1.533c0-.843.69-1.533 1.533-1.533.854 0 1.533.679 1.533 1.533ZM572.874 241.045a1.533 1.533 0 1 0 0-3.065 1.533 1.533 0 0 0 0 3.065Z"/></g><g opacity=".7"><path opacity=".7" d="M435.292 253.266a1.533 1.533 0 1 0 0-3.066 1.533 1.533 0 0 0 0 3.066ZM449.046 253.266a1.534 1.534 0 1 0-.002-3.068 1.534 1.534 0 0 0 .002 3.068ZM462.81 253.266a1.533 1.533 0 1 0 0-3.066 1.533 1.533 0 0 0 0 3.066ZM476.564 253.266a1.533 1.533 0 1 0 0-3.066 1.533 1.533 0 0 0 0 3.066ZM490.329 253.266a1.534 1.534 0 1 0 0-3.068 1.534 1.534 0 0 0 0 3.068ZM505.616 251.733c0 .843-.69 1.533-1.533 1.533a1.53 1.53 0 0 1-1.533-1.533c0-.844.69-1.533 1.533-1.533a1.544 1.544 0 0 1 1.533 1.533ZM517.837 253.266a1.534 1.534 0 1 0-.002-3.068 1.534 1.534 0 0 0 .002 3.068ZM533.124 251.733c0 .843-.69 1.533-1.533 1.533a1.53 1.53 0 0 1-1.533-1.533c0-.844.689-1.533 1.533-1.533a1.537 1.537 0 0 1 1.533 1.533ZM545.356 253.266a1.533 1.533 0 1 0 0-3.066 1.533 1.533 0 0 0 0 3.066ZM560.642 251.733c0 .843-.69 1.533-1.533 1.533a1.53 1.53 0 0 1-1.533-1.533c0-.844.69-1.533 1.533-1.533a1.537 1.537 0 0 1 1.533 1.533ZM572.874 253.266a1.533 1.533 0 1 0 0-3.066 1.533 1.533 0 0 0 0 3.066Z"/></g><g opacity=".7"><path opacity=".7" d="M436.825 263.965c0 .843-.69 1.533-1.533 1.533s-1.533-.69-1.533-1.533a1.53 1.53 0 0 1 1.533-1.533c.843.01 1.533.689 1.533 1.533ZM450.579 263.965a1.53 1.53 0 0 1-1.533 1.533c-.843 0-1.533-.69-1.533-1.533 0-.844.69-1.533 1.533-1.533.854.01 1.533.689 1.533 1.533ZM464.333 263.965c0 .843-.69 1.533-1.533 1.533-.844 0-1.533-.69-1.533-1.533a1.53 1.53 0 0 1 1.533-1.533c.854.01 1.533.689 1.533 1.533ZM478.097 263.965a1.53 1.53 0 0 1-1.533 1.533c-.843 0-1.533-.69-1.533-1.533 0-.844.69-1.533 1.533-1.533.844.01 1.533.689 1.533 1.533ZM491.851 263.965c0 .843-.69 1.533-1.533 1.533s-1.533-.69-1.533-1.533a1.53 1.53 0 0 1 1.533-1.533c.854.01 1.533.689 1.533 1.533ZM505.616 263.965c0 .843-.69 1.533-1.533 1.533s-1.533-.69-1.533-1.533c0-.844.69-1.533 1.533-1.533.843.01 1.533.689 1.533 1.533ZM519.37 263.965c0 .843-.69 1.533-1.533 1.533s-1.533-.69-1.533-1.533a1.53 1.53 0 0 1 1.533-1.533c.843.01 1.533.689 1.533 1.533ZM533.124 263.965c0 .843-.69 1.533-1.533 1.533-.844 0-1.533-.69-1.533-1.533 0-.844.689-1.533 1.533-1.533.854.01 1.533.689 1.533 1.533ZM546.889 263.965c0 .843-.69 1.533-1.533 1.533s-1.533-.69-1.533-1.533a1.53 1.53 0 0 1 1.533-1.533c.843.01 1.533.689 1.533 1.533ZM560.642 263.965c0 .843-.69 1.533-1.533 1.533s-1.533-.69-1.533-1.533c0-.844.69-1.533 1.533-1.533.854.01 1.533.689 1.533 1.533ZM574.407 263.965a1.53 1.53 0 0 1-1.533 1.533 1.53 1.53 0 0 1-1.533-1.533 1.53 1.53 0 0 1 1.533-1.533 1.53 1.53 0 0 1 1.533 1.533Z"/></g><g opacity=".7"><path opacity=".7" d="M436.825 276.197c0 .843-.69 1.533-1.533 1.533a1.53 1.53 0 0 1-1.533-1.533 1.53 1.53 0 0 1 1.533-1.534c.843 0 1.533.69 1.533 1.534ZM450.579 276.196a1.53 1.53 0 0 1-1.533 1.533 1.53 1.53 0 0 1-1.533-1.533c0-.843.69-1.533 1.533-1.533.854 0 1.533.69 1.533 1.533ZM464.333 276.196c0 .843-.69 1.533-1.533 1.533a1.53 1.53 0 0 1-1.533-1.533 1.53 1.53 0 0 1 1.533-1.533c.854 0 1.533.69 1.533 1.533ZM478.097 276.196a1.53 1.53 0 0 1-1.533 1.533 1.53 1.53 0 0 1-1.533-1.533c0-.843.69-1.533 1.533-1.533.844 0 1.533.69 1.533 1.533ZM491.851 276.196c0 .843-.69 1.533-1.533 1.533a1.53 1.53 0 0 1-1.533-1.533 1.53 1.53 0 0 1 1.533-1.533c.854 0 1.533.69 1.533 1.533ZM505.616 276.196c0 .843-.69 1.533-1.533 1.533a1.53 1.53 0 0 1-1.533-1.533c0-.843.69-1.533 1.533-1.533s1.533.69 1.533 1.533ZM519.37 276.196c0 .843-.69 1.533-1.533 1.533a1.53 1.53 0 0 1-1.533-1.533 1.53 1.53 0 0 1 1.533-1.533c.843 0 1.533.69 1.533 1.533ZM533.124 276.196c0 .843-.69 1.533-1.533 1.533a1.53 1.53 0 0 1-1.533-1.533c0-.843.689-1.533 1.533-1.533.854 0 1.533.69 1.533 1.533ZM546.889 276.196c0 .843-.69 1.533-1.533 1.533a1.53 1.53 0 0 1-1.533-1.533 1.53 1.53 0 0 1 1.533-1.533c.843 0 1.533.69 1.533 1.533ZM560.642 276.196c0 .843-.69 1.533-1.533 1.533a1.53 1.53 0 0 1-1.533-1.533c0-.843.69-1.533 1.533-1.533.854 0 1.533.69 1.533 1.533ZM574.407 276.196a1.53 1.53 0 0 1-1.533 1.533 1.524 1.524 0 0 1-1.533-1.533 1.53 1.53 0 0 1 1.533-1.533c.855 0 1.533.69 1.533 1.533Z"/></g><g opacity=".7"><path opacity=".7" d="M435.292 289.961a1.533 1.533 0 1 0 0-3.065 1.533 1.533 0 0 0 0 3.065ZM449.046 289.961a1.533 1.533 0 1 0 0-3.066 1.533 1.533 0 0 0 0 3.066ZM462.81 289.961a1.533 1.533 0 1 0 0-3.065 1.533 1.533 0 0 0 0 3.065ZM476.564 289.961a1.533 1.533 0 1 0 0-3.065 1.533 1.533 0 0 0 0 3.065ZM490.329 289.961a1.533 1.533 0 1 0 .001-3.067 1.533 1.533 0 0 0-.001 3.067ZM505.616 288.428c0 .843-.69 1.533-1.533 1.533a1.53 1.53 0 0 1-1.533-1.533c0-.854.69-1.533 1.533-1.533s1.533.69 1.533 1.533ZM517.837 289.961a1.533 1.533 0 1 0 0-3.066 1.533 1.533 0 0 0 0 3.066ZM533.124 288.428c0 .843-.69 1.533-1.533 1.533a1.53 1.53 0 0 1-1.533-1.533 1.53 1.53 0 0 1 1.533-1.533c.854 0 1.533.69 1.533 1.533ZM545.356 289.961a1.533 1.533 0 1 0 0-3.065 1.533 1.533 0 0 0 0 3.065ZM560.642 288.428c0 .843-.69 1.533-1.533 1.533a1.53 1.53 0 0 1-1.533-1.533c0-.854.69-1.533 1.533-1.533.854 0 1.533.69 1.533 1.533ZM572.874 289.961a1.533 1.533 0 1 0 0-3.065 1.533 1.533 0 0 0 0 3.065Z"/></g><g opacity=".7"><path opacity=".7" d="M435.292 302.193a1.533 1.533 0 1 0 0-3.065 1.533 1.533 0 0 0 0 3.065ZM449.046 302.193a1.533 1.533 0 1 0 0-3.066 1.533 1.533 0 0 0 0 3.066ZM462.81 302.193a1.533 1.533 0 1 0 0-3.065 1.533 1.533 0 0 0 0 3.065ZM476.564 302.193a1.533 1.533 0 1 0 0-3.065 1.533 1.533 0 0 0 0 3.065ZM490.329 302.193a1.533 1.533 0 1 0 .001-3.067 1.533 1.533 0 0 0-.001 3.067ZM505.616 300.66c0 .843-.69 1.533-1.533 1.533s-1.533-.69-1.533-1.533.69-1.533 1.533-1.533a1.53 1.53 0 0 1 1.533 1.533ZM517.837 302.193a1.533 1.533 0 1 0 0-3.066 1.533 1.533 0 0 0 0 3.066ZM533.124 300.66c0 .843-.69 1.533-1.533 1.533-.844 0-1.533-.69-1.533-1.533s.689-1.533 1.533-1.533c.854 0 1.533.679 1.533 1.533ZM545.356 302.193a1.533 1.533 0 1 0 0-3.065 1.533 1.533 0 0 0 0 3.065ZM560.642 300.66c0 .843-.69 1.533-1.533 1.533s-1.533-.69-1.533-1.533.69-1.533 1.533-1.533c.854 0 1.533.679 1.533 1.533ZM572.874 302.193a1.533 1.533 0 1 0 0-3.065 1.533 1.533 0 0 0 0 3.065Z"/></g><g opacity=".7"><path opacity=".7" d="M435.292 314.414a1.533 1.533 0 1 0 0-3.066 1.533 1.533 0 0 0 0 3.066ZM449.046 314.414a1.533 1.533 0 1 0 0-3.066 1.533 1.533 0 0 0 0 3.066ZM462.81 314.414a1.533 1.533 0 1 0 0-3.065 1.533 1.533 0 0 0 0 3.065ZM476.564 314.414a1.533 1.533 0 1 0 0-3.065 1.533 1.533 0 0 0 0 3.065ZM490.329 314.414a1.533 1.533 0 1 0 .001-3.067 1.533 1.533 0 0 0-.001 3.067ZM505.616 312.881c0 .843-.69 1.533-1.533 1.533a1.53 1.53 0 0 1-1.533-1.533c0-.854.69-1.533 1.533-1.533.843.011 1.533.69 1.533 1.533ZM517.837 314.414a1.533 1.533 0 1 0 0-3.066 1.533 1.533 0 0 0 0 3.066ZM533.124 312.881c0 .843-.69 1.533-1.533 1.533a1.53 1.53 0 0 1-1.533-1.533 1.53 1.53 0 0 1 1.533-1.533c.854.011 1.533.69 1.533 1.533ZM545.356 314.414a1.533 1.533 0 1 0 0-3.065 1.533 1.533 0 0 0 0 3.065ZM560.642 312.881c0 .843-.69 1.533-1.533 1.533a1.53 1.53 0 0 1-1.533-1.533c0-.854.69-1.533 1.533-1.533.854.011 1.533.69 1.533 1.533ZM572.874 314.414a1.533 1.533 0 1 0 0-3.065 1.533 1.533 0 0 0 0 3.065Z"/></g><g opacity=".7"><path opacity=".7" d="M436.825 325.113c0 .843-.69 1.533-1.533 1.533a1.53 1.53 0 0 1-1.533-1.533 1.53 1.53 0 0 1 1.533-1.534c.843.011 1.533.69 1.533 1.534ZM450.579 325.113a1.53 1.53 0 0 1-1.533 1.533 1.53 1.53 0 0 1-1.533-1.533c0-.844.69-1.534 1.533-1.534.854.011 1.533.69 1.533 1.534ZM464.333 325.113c0 .843-.69 1.533-1.533 1.533a1.53 1.53 0 0 1-1.533-1.533 1.53 1.53 0 0 1 1.533-1.534c.854.011 1.533.69 1.533 1.534ZM478.097 325.113a1.53 1.53 0 0 1-1.533 1.533 1.53 1.53 0 0 1-1.533-1.533c0-.844.69-1.534 1.533-1.534.844.011 1.533.69 1.533 1.534ZM491.851 325.113c0 .843-.69 1.533-1.533 1.533a1.53 1.53 0 0 1-1.533-1.533 1.53 1.53 0 0 1 1.533-1.534c.854.011 1.533.69 1.533 1.534ZM505.616 325.113c0 .843-.69 1.533-1.533 1.533a1.53 1.53 0 0 1-1.533-1.533c0-.844.69-1.534 1.533-1.534.843.011 1.533.69 1.533 1.534ZM519.37 325.113c0 .843-.69 1.533-1.533 1.533a1.53 1.53 0 0 1-1.533-1.533 1.53 1.53 0 0 1 1.533-1.534c.843.011 1.533.69 1.533 1.534ZM533.124 325.113c0 .843-.69 1.533-1.533 1.533a1.53 1.53 0 0 1-1.533-1.533c0-.844.689-1.534 1.533-1.534.854.011 1.533.69 1.533 1.534ZM546.889 325.113c0 .843-.69 1.533-1.533 1.533a1.53 1.53 0 0 1-1.533-1.533 1.53 1.53 0 0 1 1.533-1.534c.843.011 1.533.69 1.533 1.534ZM560.642 325.113c0 .843-.69 1.533-1.533 1.533a1.53 1.53 0 0 1-1.533-1.533c0-.844.69-1.534 1.533-1.534.854.011 1.533.69 1.533 1.534ZM574.407 325.113a1.53 1.53 0 0 1-1.533 1.533 1.524 1.524 0 0 1-1.533-1.533 1.53 1.53 0 0 1 1.533-1.534c.855 0 1.533.69 1.533 1.534Z"/></g><g opacity=".7"><path opacity=".7" d="M436.825 337.344c0 .844-.69 1.533-1.533 1.533a1.53 1.53 0 0 1-1.533-1.533 1.53 1.53 0 0 1 1.533-1.533c.843 0 1.533.69 1.533 1.533ZM450.579 337.345a1.53 1.53 0 0 1-1.533 1.533 1.53 1.53 0 0 1-1.533-1.533c0-.844.69-1.534 1.533-1.534.854 0 1.533.69 1.533 1.534ZM464.333 337.345c0 .843-.69 1.533-1.533 1.533a1.53 1.53 0 0 1-1.533-1.533 1.53 1.53 0 0 1 1.533-1.534c.854 0 1.533.69 1.533 1.534ZM478.097 337.345a1.53 1.53 0 0 1-1.533 1.533 1.53 1.53 0 0 1-1.533-1.533c0-.844.69-1.534 1.533-1.534.844 0 1.533.69 1.533 1.534ZM491.851 337.345c0 .843-.69 1.533-1.533 1.533a1.53 1.53 0 0 1-1.533-1.533 1.53 1.53 0 0 1 1.533-1.534c.854 0 1.533.69 1.533 1.534ZM505.616 337.345c0 .843-.69 1.533-1.533 1.533a1.53 1.53 0 0 1-1.533-1.533c0-.844.69-1.534 1.533-1.534s1.533.69 1.533 1.534ZM519.37 337.345c0 .843-.69 1.533-1.533 1.533a1.53 1.53 0 0 1-1.533-1.533 1.53 1.53 0 0 1 1.533-1.534c.843 0 1.533.69 1.533 1.534ZM533.124 337.345c0 .843-.69 1.533-1.533 1.533a1.53 1.53 0 0 1-1.533-1.533c0-.844.689-1.534 1.533-1.534.854 0 1.533.69 1.533 1.534ZM546.889 337.345c0 .843-.69 1.533-1.533 1.533a1.53 1.53 0 0 1-1.533-1.533 1.53 1.53 0 0 1 1.533-1.534c.843 0 1.533.69 1.533 1.534ZM560.642 337.345c0 .843-.69 1.533-1.533 1.533a1.53 1.53 0 0 1-1.533-1.533c0-.844.69-1.534 1.533-1.534.854 0 1.533.69 1.533 1.534ZM574.407 337.345a1.53 1.53 0 0 1-1.533 1.533 1.524 1.524 0 0 1-1.533-1.533 1.53 1.53 0 0 1 1.533-1.534c.855 0 1.533.69 1.533 1.534Z"/></g><g opacity=".7"><path opacity=".7" d="M435.292 351.109a1.533 1.533 0 1 0 0-3.065 1.533 1.533 0 0 0 0 3.065ZM449.046 351.109a1.533 1.533 0 1 0 0-3.066 1.533 1.533 0 0 0 0 3.066ZM462.81 351.109a1.533 1.533 0 1 0 0-3.065 1.533 1.533 0 0 0 0 3.065ZM476.564 351.109a1.533 1.533 0 1 0 0-3.065 1.533 1.533 0 0 0 0 3.065ZM490.329 351.109a1.533 1.533 0 1 0 .001-3.067 1.533 1.533 0 0 0-.001 3.067ZM505.616 349.576c0 .843-.69 1.533-1.533 1.533a1.53 1.53 0 0 1-1.533-1.533c0-.854.69-1.533 1.533-1.533s1.533.69 1.533 1.533ZM517.837 351.109a1.533 1.533 0 1 0 0-3.066 1.533 1.533 0 0 0 0 3.066ZM533.124 349.576c0 .843-.69 1.533-1.533 1.533a1.53 1.53 0 0 1-1.533-1.533 1.53 1.53 0 0 1 1.533-1.533c.854 0 1.533.69 1.533 1.533ZM545.356 351.109a1.533 1.533 0 1 0 0-3.065 1.533 1.533 0 0 0 0 3.065ZM560.642 349.576c0 .843-.69 1.533-1.533 1.533a1.53 1.53 0 0 1-1.533-1.533c0-.854.69-1.533 1.533-1.533.854 0 1.533.69 1.533 1.533ZM572.874 351.109a1.533 1.533 0 1 0 0-3.065 1.533 1.533 0 0 0 0 3.065Z"/></g><g opacity=".7"><path opacity=".7" d="M436.825 361.797c0 .843-.69 1.533-1.533 1.533s-1.533-.69-1.533-1.533a1.53 1.53 0 0 1 1.533-1.533c.843.011 1.533.69 1.533 1.533ZM450.579 361.797a1.53 1.53 0 0 1-1.533 1.533c-.843 0-1.533-.69-1.533-1.533 0-.844.69-1.533 1.533-1.533a1.537 1.537 0 0 1 1.533 1.533ZM464.333 361.797c0 .843-.69 1.533-1.533 1.533-.844 0-1.533-.69-1.533-1.533a1.53 1.53 0 0 1 1.533-1.533 1.537 1.537 0 0 1 1.533 1.533ZM478.097 361.797a1.53 1.53 0 0 1-1.533 1.533c-.843 0-1.533-.69-1.533-1.533 0-.844.69-1.533 1.533-1.533a1.544 1.544 0 0 1 1.533 1.533ZM491.851 361.797c0 .843-.69 1.533-1.533 1.533s-1.533-.69-1.533-1.533a1.53 1.53 0 0 1 1.533-1.533 1.537 1.537 0 0 1 1.533 1.533ZM505.616 361.797c0 .843-.69 1.533-1.533 1.533s-1.533-.69-1.533-1.533c0-.844.69-1.533 1.533-1.533a1.544 1.544 0 0 1 1.533 1.533ZM519.37 361.797c0 .843-.69 1.533-1.533 1.533s-1.533-.69-1.533-1.533a1.53 1.53 0 0 1 1.533-1.533 1.544 1.544 0 0 1 1.533 1.533ZM533.124 361.797c0 .843-.69 1.533-1.533 1.533-.844 0-1.533-.69-1.533-1.533 0-.844.689-1.533 1.533-1.533a1.537 1.537 0 0 1 1.533 1.533ZM546.889 361.797c0 .843-.69 1.533-1.533 1.533s-1.533-.69-1.533-1.533a1.53 1.53 0 0 1 1.533-1.533 1.544 1.544 0 0 1 1.533 1.533ZM560.642 361.797c0 .843-.69 1.533-1.533 1.533s-1.533-.69-1.533-1.533c0-.844.69-1.533 1.533-1.533a1.537 1.537 0 0 1 1.533 1.533ZM574.407 361.797a1.53 1.53 0 0 1-1.533 1.533 1.53 1.53 0 0 1-1.533-1.533 1.53 1.53 0 0 1 1.533-1.533 1.53 1.53 0 0 1 1.533 1.533Z"/></g><g opacity=".7"><path opacity=".7" d="M435.292 375.562a1.533 1.533 0 1 0 0-3.065 1.533 1.533 0 0 0 0 3.065ZM449.046 375.562a1.534 1.534 0 1 0-.002-3.068 1.534 1.534 0 0 0 .002 3.068ZM462.81 375.562a1.533 1.533 0 1 0 0-3.066 1.533 1.533 0 0 0 0 3.066ZM476.564 375.562a1.533 1.533 0 1 0 0-3.066 1.533 1.533 0 0 0 0 3.066ZM490.329 375.562a1.534 1.534 0 1 0 0-3.068 1.534 1.534 0 0 0 0 3.068ZM505.616 374.029c0 .843-.69 1.533-1.533 1.533s-1.533-.69-1.533-1.533c0-.844.69-1.534 1.533-1.534.843.011 1.533.69 1.533 1.534ZM517.837 375.562a1.534 1.534 0 1 0-.002-3.068 1.534 1.534 0 0 0 .002 3.068ZM533.124 374.029c0 .843-.69 1.533-1.533 1.533-.844 0-1.533-.69-1.533-1.533 0-.844.689-1.534 1.533-1.534.854.011 1.533.69 1.533 1.534ZM545.356 375.562a1.533 1.533 0 1 0 0-3.066 1.533 1.533 0 0 0 0 3.066ZM560.642 374.029c0 .843-.69 1.533-1.533 1.533s-1.533-.69-1.533-1.533c0-.844.69-1.534 1.533-1.534.854.011 1.533.69 1.533 1.534ZM572.874 375.562a1.533 1.533 0 1 0 0-3.066 1.533 1.533 0 0 0 0 3.066Z"/></g></g><path d="M1028.62 341.319c-24.63 33.454-62.433 56.242-109.619 68.179-19.909 5.037-40.671 8.41-58.575 18.331-17.904 9.921-32.698 28.548-30.453 48.401 2.759 24.376 29.216 39.587 54.095 43.463 52.333 8.147 111.258-.066 147.502-42.269 28.22-32.863 38.71-78.965 70.11-108.805 30.4-28.887 76.5-38.568 102.88-71.168 13.89-17.181 20.75-39.082 24.14-60.918 4.81-30.924 2.97-63.743-11.12-91.689-14.09-27.934-41.91-50.033-73.15-51.796-81.91-4.61-81.31 99.42-84.21 154.469-1.95 37.276-13.03 68.572-31.6 93.802Z" fill="#69779B"/><path d="M621.474 553.136a2.32 2.32 0 1 0 0-4.642 2.32 2.32 0 0 0 0 4.642ZM642.389 553.136a2.321 2.321 0 1 0 .002-4.642 2.321 2.321 0 0 0-.002 4.642ZM663.305 553.136a2.321 2.321 0 1 0 .002-4.642 2.321 2.321 0 0 0-.002 4.642ZM684.221 553.136a2.32 2.32 0 1 0 0-4.642 2.32 2.32 0 0 0 0 4.642ZM707.457 550.815a2.322 2.322 0 1 1-4.644-.002 2.322 2.322 0 0 1 4.644.002ZM726.041 553.136a2.322 2.322 0 1 0 0-4.643 2.322 2.322 0 0 0 0 4.643ZM746.956 553.136a2.322 2.322 0 1 0 0-4.643 2.322 2.322 0 0 0 0 4.643ZM767.872 553.136a2.32 2.32 0 1 0 0-4.642 2.32 2.32 0 0 0 0 4.642ZM788.787 553.136a2.322 2.322 0 1 0 0-4.643 2.322 2.322 0 0 0 0 4.643ZM809.703 553.136a2.322 2.322 0 1 0 0-4.643 2.322 2.322 0 0 0 0 4.643ZM830.619 553.136a2.32 2.32 0 1 0 0-4.642 2.32 2.32 0 0 0 0 4.642ZM621.474 571.73a2.32 2.32 0 1 0 0-4.642 2.32 2.32 0 0 0 0 4.642ZM642.389 571.73a2.321 2.321 0 1 0 .002-4.642 2.321 2.321 0 0 0-.002 4.642ZM663.305 571.73a2.321 2.321 0 1 0 .002-4.642 2.321 2.321 0 0 0-.002 4.642ZM684.221 571.73a2.32 2.32 0 1 0 0-4.642 2.32 2.32 0 0 0 0 4.642ZM707.457 569.409a2.322 2.322 0 1 1-4.644-.002 2.322 2.322 0 0 1 4.644.002ZM726.041 571.73a2.322 2.322 0 1 0 0-4.643 2.322 2.322 0 0 0 0 4.643ZM746.956 571.73a2.322 2.322 0 1 0 0-4.643 2.322 2.322 0 0 0 0 4.643ZM767.872 571.73a2.32 2.32 0 1 0 0-4.642 2.32 2.32 0 0 0 0 4.642ZM788.787 571.73a2.322 2.322 0 1 0 0-4.643 2.322 2.322 0 0 0 0 4.643ZM809.703 571.73a2.322 2.322 0 1 0 0-4.643 2.322 2.322 0 0 0 0 4.643ZM830.619 571.73a2.32 2.32 0 1 0 0-4.642 2.32 2.32 0 0 0 0 4.642Z" fill="#fff"/><path d="M172.753 146.115c-21.003-19.306-33.75-46.803-38.382-79.907-1.96-13.972-2.705-28.394-8.147-41.349C120.781 11.894 109.174.407 95.453.461 78.61.538 66.247 17.456 61.747 34.156 52.286 69.275 53.5 110.12 79.618 138c20.335 21.715 51.03 32.304 69.054 55.958 17.456 22.897 20.631 55.103 40.923 75.537 10.687 10.764 25.131 17.072 39.783 21.025 20.751 5.584 43.299 6.767 63.415-.767 20.127-7.534 37.275-24.879 40.801-46.08 9.243-55.574-61.815-62.911-99.179-68.988-25.274-4.118-45.817-14.017-61.662-28.57Z" fill="#69779B"/><path d="M467.673 99.87c-15.44 4.457-31.428-5.694-42.017-17.783-10.589-12.09-18.583-26.752-31.538-36.269-27.519-20.192-71.135-7.391-87.725 22.438-16.59 29.84-7.654 69.843 16.503 93.967 24.146 24.124 60.502 33.41 94.448 29.829 29.83-3.142 59.079-15.9 79.48-37.878 20.4-21.977 31.066-53.482 25.252-82.906-3.406-17.237-21.781-39.696-30.334-17.587-6.625 17.181-.043 39.258-24.069 46.19Z" fill="#ACDBDF"/><path opacity=".71" d="M905.669 559.049c15.002-2.821 24.877-17.269 22.056-32.271-2.821-15.002-17.269-24.877-32.271-22.056-15.002 2.821-24.877 17.269-22.056 32.271 2.821 15.002 17.269 24.877 32.271 22.056Z" fill="#D7EAEA"/><path opacity=".65" d="M343.954 396.269c1.642 15.178-9.33 28.811-24.508 30.454-15.177 1.642-28.811-9.33-30.453-24.508-1.643-15.177 9.33-28.811 24.507-30.453 15.178-1.643 28.811 9.33 30.454 24.507Z" fill="#69779B"/><path d="M857.382 332.346c13.587-28.509 1.49-62.634-27.019-76.221-28.509-13.586-62.634-1.489-76.221 27.02-13.586 28.509-1.489 62.634 27.02 76.22 28.509 13.587 62.634 1.49 76.22-27.019Z" fill="#ACDBDF"/><path opacity=".72" d="M661.997 520.292c22.332-22.332 22.332-58.538 0-80.869-22.331-22.332-58.537-22.332-80.869-.001-22.331 22.332-22.331 58.538 0 80.87 22.332 22.331 58.538 22.331 80.869 0Z" fill="#D7EAEA"/><path d="M682.655 236.117c-57.316 0-103.943-46.627-103.943-103.942 0-57.316 46.627-103.943 103.943-103.943 57.315 0 103.942 46.627 103.942 103.943-.011 57.315-46.638 103.942-103.942 103.942Zm0-204.392c-55.388 0-100.45 45.062-100.45 100.45 0 55.388 45.062 100.449 100.45 100.449 55.388 0 100.449-45.061 100.449-100.449s-45.061-100.45-100.449-100.45Z" fill="#fff"/><path d="M682.654 224.762c-51.051 0-92.587-41.536-92.587-92.587 0-51.052 41.536-92.587 92.587-92.587 51.052 0 92.587 41.535 92.587 92.587-.011 51.051-41.546 92.587-92.587 92.587Zm0-181.681c-49.124 0-89.093 39.97-89.093 89.094 0 49.124 39.969 89.093 89.093 89.093 49.125 0 89.094-39.969 89.094-89.093 0-49.125-39.969-89.094-89.094-89.094Z" fill="#fff"/><path d="M682.655 213.406c-44.788 0-81.232-36.444-81.232-81.231 0-44.788 36.444-81.232 81.232-81.232 44.787 0 81.231 36.444 81.231 81.232-.011 44.787-36.444 81.231-81.231 81.231Zm0-158.97c-42.872 0-77.738 34.878-77.738 77.739 0 42.871 34.877 77.738 77.738 77.738 42.86 0 77.738-34.878 77.738-77.738s-34.878-77.738-77.738-77.738Z" fill="#fff"/><path d="M682.654 202.05c-38.524 0-69.875-31.34-69.875-69.875 0-38.525 31.34-69.876 69.875-69.876 38.524 0 69.876 31.34 69.876 69.876-.011 38.535-31.352 69.875-69.876 69.875Zm0-136.258c-36.607 0-66.382 29.786-66.382 66.383 0 36.607 29.786 66.382 66.382 66.382 36.597 0 66.383-29.786 66.383-66.382 0-36.597-29.786-66.383-66.383-66.383Z" fill="#fff"/><path d="M682.655 190.695c-32.272 0-58.52-26.249-58.52-58.52 0-32.272 26.248-58.52 58.52-58.52 32.271 0 58.519 26.248 58.519 58.52-.011 32.271-26.259 58.52-58.519 58.52Zm0-113.547c-30.344 0-55.027 24.683-55.027 55.027s24.683 55.037 55.027 55.037 55.026-24.682 55.026-55.037c0-30.344-24.682-55.027-55.026-55.027Z" fill="#fff"/><path d="M682.655 179.339c-26.008 0-47.164-21.157-47.164-47.164 0-26.008 21.156-47.165 47.164-47.165 26.007 0 47.164 21.157 47.164 47.165 0 26.007-21.168 47.164-47.164 47.164Zm0-90.835c-24.081 0-43.682 19.59-43.682 43.682 0 24.08 19.59 43.681 43.682 43.681 24.091 0 43.682-19.59 43.682-43.681-.011-24.092-19.602-43.682-43.682-43.682ZM67.55 237.946a1.85 1.85 0 1 0 .002-3.7 1.85 1.85 0 0 0-.001 3.7ZM84.196 237.946a1.85 1.85 0 1 0 .001-3.7 1.85 1.85 0 0 0 0 3.7ZM100.841 237.946a1.85 1.85 0 1 0 .001-3.701 1.85 1.85 0 0 0-.001 3.701ZM119.337 236.096c0 1.018-.833 1.85-1.851 1.85a1.855 1.855 0 0 1-1.851-1.85c0-1.019.832-1.851 1.851-1.851 1.018 0 1.851.832 1.851 1.851ZM135.981 236.096c0 1.018-.832 1.85-1.851 1.85a1.855 1.855 0 0 1-1.85-1.85c0-1.019.832-1.851 1.85-1.851 1.019 0 1.851.832 1.851 1.851ZM150.775 237.946a1.85 1.85 0 1 0 .002-3.7 1.85 1.85 0 0 0-.002 3.7ZM167.42 237.946a1.85 1.85 0 1 0 .002-3.7 1.85 1.85 0 0 0-.002 3.7ZM184.065 237.946a1.85 1.85 0 1 0 .001-3.701 1.85 1.85 0 0 0-.001 3.701ZM200.71 237.946a1.85 1.85 0 1 0 .001-3.701 1.85 1.85 0 0 0-.001 3.701ZM217.355 237.946a1.85 1.85 0 1 0 0-3.7 1.85 1.85 0 0 0 0 3.7ZM234 237.946a1.85 1.85 0 1 0 0-3.7 1.85 1.85 0 0 0 0 3.7ZM67.55 252.74a1.85 1.85 0 1 0 .002-3.7 1.85 1.85 0 0 0-.001 3.7ZM84.196 252.741a1.851 1.851 0 1 0 0-3.702 1.851 1.851 0 0 0 0 3.702ZM100.841 252.741a1.851 1.851 0 1 0 0-3.703 1.851 1.851 0 0 0 0 3.703ZM119.337 250.89a1.857 1.857 0 0 1-1.851 1.851 1.856 1.856 0 0 1-1.851-1.851c0-1.018.832-1.851 1.851-1.851 1.018 0 1.851.833 1.851 1.851ZM135.981 250.89a1.856 1.856 0 0 1-1.851 1.851 1.856 1.856 0 0 1-1.85-1.851c0-1.018.832-1.851 1.85-1.851 1.019 0 1.851.833 1.851 1.851ZM150.775 252.741a1.85 1.85 0 1 0 0-3.701 1.85 1.85 0 0 0 0 3.701ZM167.42 252.741a1.85 1.85 0 1 0 0-3.701 1.85 1.85 0 0 0 0 3.701ZM184.065 252.741a1.851 1.851 0 1 0 0-3.703 1.851 1.851 0 0 0 0 3.703ZM200.71 252.741a1.851 1.851 0 1 0 0-3.703 1.851 1.851 0 0 0 0 3.703ZM217.355 252.741a1.85 1.85 0 1 0-.001-3.701 1.85 1.85 0 0 0 .001 3.701ZM234 252.741a1.85 1.85 0 1 0-.001-3.701 1.85 1.85 0 0 0 .001 3.701ZM67.55 267.535a1.851 1.851 0 1 0 0-3.702 1.851 1.851 0 0 0 0 3.702ZM84.196 267.535a1.851 1.851 0 1 0 0-3.702 1.851 1.851 0 0 0 0 3.702ZM100.841 267.535a1.851 1.851 0 1 0 0-3.703 1.851 1.851 0 0 0 0 3.703ZM119.337 265.684a1.857 1.857 0 0 1-1.851 1.851 1.856 1.856 0 0 1-1.851-1.851c0-1.019.832-1.851 1.851-1.851 1.018 0 1.851.832 1.851 1.851ZM135.981 265.684a1.856 1.856 0 0 1-1.851 1.851 1.856 1.856 0 0 1-1.85-1.851c0-1.019.832-1.851 1.85-1.851 1.019 0 1.851.832 1.851 1.851ZM150.775 267.535a1.85 1.85 0 1 0 0-3.701 1.85 1.85 0 0 0 0 3.701ZM167.42 267.535a1.85 1.85 0 1 0 0-3.701 1.85 1.85 0 0 0 0 3.701ZM184.065 267.535a1.851 1.851 0 1 0 0-3.703 1.851 1.851 0 0 0 0 3.703ZM200.71 267.535a1.851 1.851 0 1 0 0-3.703 1.851 1.851 0 0 0 0 3.703ZM217.355 267.535a1.85 1.85 0 1 0-.001-3.701 1.85 1.85 0 0 0 .001 3.701ZM234 267.535a1.85 1.85 0 1 0-.001-3.701 1.85 1.85 0 0 0 .001 3.701ZM69.401 280.478a1.855 1.855 0 0 1-1.85 1.851 1.855 1.855 0 0 1-1.85-1.851c0-1.018.831-1.85 1.85-1.85 1.018 0 1.85.832 1.85 1.85ZM86.047 280.478a1.856 1.856 0 0 1-1.85 1.851 1.856 1.856 0 0 1-1.851-1.851c0-1.018.832-1.851 1.85-1.851 1.019 0 1.851.833 1.851 1.851ZM102.692 280.478a1.857 1.857 0 0 1-1.851 1.851 1.856 1.856 0 0 1-1.85-1.851c0-1.018.832-1.851 1.85-1.851 1.018 0 1.851.833 1.851 1.851ZM119.337 280.478a1.857 1.857 0 0 1-1.851 1.851 1.856 1.856 0 0 1-1.851-1.851c0-1.018.832-1.851 1.851-1.851 1.018 0 1.851.833 1.851 1.851ZM135.981 280.478a1.856 1.856 0 0 1-1.851 1.851 1.856 1.856 0 0 1-1.85-1.851c0-1.018.832-1.851 1.85-1.851 1.019 0 1.851.833 1.851 1.851ZM152.626 280.478a1.856 1.856 0 0 1-1.851 1.851 1.856 1.856 0 0 1-1.85-1.851c0-1.018.832-1.851 1.85-1.851 1.019 0 1.851.833 1.851 1.851ZM169.271 280.478a1.856 1.856 0 0 1-1.851 1.851 1.856 1.856 0 0 1-1.85-1.851c0-1.018.832-1.851 1.85-1.851 1.019 0 1.851.833 1.851 1.851ZM185.916 280.478a1.857 1.857 0 0 1-1.851 1.851 1.857 1.857 0 0 1-1.851-1.851c0-1.018.833-1.851 1.851-1.851s1.851.833 1.851 1.851ZM202.561 280.478a1.857 1.857 0 0 1-1.851 1.851 1.857 1.857 0 0 1-1.851-1.851c0-1.018.833-1.851 1.851-1.851s1.851.833 1.851 1.851ZM219.205 280.478a1.856 1.856 0 0 1-1.85 1.851 1.856 1.856 0 0 1-1.851-1.851c0-1.018.832-1.851 1.851-1.851 1.018 0 1.85.833 1.85 1.851ZM235.85 280.478a1.856 1.856 0 0 1-1.85 1.851 1.856 1.856 0 0 1-1.851-1.851c0-1.018.832-1.851 1.851-1.851 1.018 0 1.85.833 1.85 1.851ZM69.401 295.273c0 1.018-.832 1.85-1.85 1.85a1.855 1.855 0 0 1-1.85-1.85c0-1.019.831-1.851 1.85-1.851 1.018 0 1.85.832 1.85 1.851ZM86.047 295.273c0 1.018-.832 1.85-1.85 1.85a1.855 1.855 0 0 1-1.851-1.85c0-1.019.832-1.851 1.85-1.851 1.019 0 1.851.832 1.851 1.851ZM102.692 295.273c0 1.018-.833 1.85-1.851 1.85a1.855 1.855 0 0 1-1.85-1.85c0-1.019.832-1.851 1.85-1.851 1.018 0 1.851.832 1.851 1.851ZM119.337 295.273c0 1.018-.833 1.85-1.851 1.85a1.855 1.855 0 0 1-1.851-1.85c0-1.019.832-1.851 1.851-1.851 1.018 0 1.851.832 1.851 1.851ZM135.981 295.273c0 1.018-.832 1.85-1.851 1.85a1.855 1.855 0 0 1-1.85-1.85c0-1.019.832-1.851 1.85-1.851 1.019 0 1.851.832 1.851 1.851ZM152.626 295.273c0 1.018-.832 1.85-1.851 1.85a1.855 1.855 0 0 1-1.85-1.85c0-1.019.832-1.851 1.85-1.851 1.019 0 1.851.832 1.851 1.851ZM169.271 295.273c0 1.018-.832 1.85-1.851 1.85a1.855 1.855 0 0 1-1.85-1.85c0-1.019.832-1.851 1.85-1.851 1.019 0 1.851.832 1.851 1.851ZM185.916 295.273c0 1.018-.833 1.85-1.851 1.85a1.856 1.856 0 0 1-1.851-1.85c0-1.019.833-1.851 1.851-1.851s1.851.832 1.851 1.851ZM202.561 295.273c0 1.018-.833 1.85-1.851 1.85a1.856 1.856 0 0 1-1.851-1.85c0-1.019.833-1.851 1.851-1.851s1.851.832 1.851 1.851ZM219.205 295.273c0 1.018-.832 1.85-1.85 1.85a1.855 1.855 0 0 1-1.851-1.85c0-1.019.832-1.851 1.851-1.851 1.018 0 1.85.832 1.85 1.851ZM235.85 295.273c0 1.018-.832 1.85-1.85 1.85a1.855 1.855 0 0 1-1.851-1.85c0-1.019.832-1.851 1.851-1.851 1.018 0 1.85.832 1.85 1.851ZM69.401 310.067c0 1.018-.832 1.85-1.85 1.85a1.855 1.855 0 0 1-1.85-1.85c0-1.019.831-1.851 1.85-1.851 1.018 0 1.85.832 1.85 1.851ZM86.047 310.067c0 1.018-.832 1.85-1.85 1.85a1.855 1.855 0 0 1-1.851-1.85c0-1.019.832-1.851 1.85-1.851 1.019 0 1.851.832 1.851 1.851ZM102.692 310.067c0 1.018-.833 1.85-1.851 1.85a1.855 1.855 0 0 1-1.85-1.85c0-1.019.832-1.851 1.85-1.851 1.018 0 1.851.832 1.851 1.851ZM119.337 310.067c0 1.018-.833 1.85-1.851 1.85a1.855 1.855 0 0 1-1.851-1.85c0-1.019.832-1.851 1.851-1.851 1.018 0 1.851.832 1.851 1.851ZM135.981 310.067c0 1.018-.832 1.85-1.851 1.85a1.855 1.855 0 0 1-1.85-1.85c0-1.019.832-1.851 1.85-1.851 1.019 0 1.851.832 1.851 1.851ZM152.626 310.067c0 1.018-.832 1.85-1.851 1.85a1.855 1.855 0 0 1-1.85-1.85c0-1.019.832-1.851 1.85-1.851 1.019 0 1.851.832 1.851 1.851ZM169.271 310.067c0 1.018-.832 1.85-1.851 1.85a1.855 1.855 0 0 1-1.85-1.85c0-1.019.832-1.851 1.85-1.851 1.019 0 1.851.832 1.851 1.851ZM185.916 310.067c0 1.018-.833 1.85-1.851 1.85a1.856 1.856 0 0 1-1.851-1.85c0-1.019.833-1.851 1.851-1.851s1.851.832 1.851 1.851ZM202.561 310.067c0 1.018-.833 1.85-1.851 1.85a1.856 1.856 0 0 1-1.851-1.85c0-1.019.833-1.851 1.851-1.851s1.851.832 1.851 1.851ZM219.205 310.067c0 1.018-.832 1.85-1.85 1.85a1.855 1.855 0 0 1-1.851-1.85c0-1.019.832-1.851 1.851-1.851 1.018 0 1.85.832 1.85 1.851ZM235.85 310.067c0 1.018-.832 1.85-1.85 1.85a1.855 1.855 0 0 1-1.851-1.85c0-1.019.832-1.851 1.851-1.851 1.018 0 1.85.832 1.85 1.851ZM67.55 326.712a1.851 1.851 0 1 0 0-3.702 1.851 1.851 0 0 0 0 3.702ZM84.196 326.712a1.851 1.851 0 1 0 0-3.702 1.851 1.851 0 0 0 0 3.702ZM100.841 326.712a1.851 1.851 0 1 0 0-3.703 1.851 1.851 0 0 0 0 3.703ZM119.337 324.861a1.857 1.857 0 0 1-1.851 1.851 1.856 1.856 0 0 1-1.851-1.851c0-1.019.832-1.851 1.851-1.851a1.863 1.863 0 0 1 1.851 1.851ZM135.981 324.861a1.856 1.856 0 0 1-1.851 1.851 1.856 1.856 0 0 1-1.85-1.851c0-1.019.832-1.851 1.85-1.851a1.862 1.862 0 0 1 1.851 1.851ZM150.775 326.712a1.85 1.85 0 1 0 0-3.701 1.85 1.85 0 0 0 0 3.701ZM167.42 326.712a1.85 1.85 0 1 0 0-3.701 1.85 1.85 0 0 0 0 3.701ZM184.065 326.712a1.851 1.851 0 1 0 0-3.703 1.851 1.851 0 0 0 0 3.703ZM200.71 326.712a1.851 1.851 0 1 0 0-3.703 1.851 1.851 0 0 0 0 3.703ZM217.355 326.712a1.85 1.85 0 1 0-.001-3.701 1.85 1.85 0 0 0 .001 3.701ZM234 326.712a1.85 1.85 0 1 0-.001-3.701 1.85 1.85 0 0 0 .001 3.701ZM69.401 339.666a1.856 1.856 0 0 1-1.85 1.851 1.856 1.856 0 0 1-1.85-1.851c0-1.018.831-1.851 1.85-1.851 1.018 0 1.85.822 1.85 1.851ZM86.047 339.666a1.856 1.856 0 0 1-1.85 1.851 1.856 1.856 0 0 1-1.851-1.851c0-1.018.832-1.851 1.85-1.851 1.019 0 1.851.822 1.851 1.851ZM102.692 339.666a1.857 1.857 0 0 1-1.851 1.851 1.856 1.856 0 0 1-1.85-1.851 1.85 1.85 0 1 1 3.702 0ZM119.337 339.666a1.857 1.857 0 0 1-1.851 1.851 1.856 1.856 0 0 1-1.851-1.851c0-1.018.832-1.851 1.851-1.851a1.85 1.85 0 0 1 1.851 1.851ZM135.981 339.666a1.856 1.856 0 0 1-1.851 1.851 1.856 1.856 0 0 1-1.85-1.851c0-1.018.832-1.851 1.85-1.851 1.019 0 1.851.822 1.851 1.851ZM152.626 339.666a1.856 1.856 0 0 1-1.851 1.851 1.856 1.856 0 0 1-1.85-1.851c0-1.018.832-1.851 1.85-1.851 1.019 0 1.851.822 1.851 1.851ZM169.271 339.666a1.856 1.856 0 0 1-1.851 1.851 1.856 1.856 0 0 1-1.85-1.851c0-1.018.832-1.851 1.85-1.851 1.019 0 1.851.822 1.851 1.851ZM185.916 339.666a1.857 1.857 0 0 1-1.851 1.851 1.857 1.857 0 0 1-1.851-1.851c0-1.018.833-1.851 1.851-1.851a1.85 1.85 0 0 1 1.851 1.851ZM202.561 339.666a1.857 1.857 0 0 1-1.851 1.851 1.857 1.857 0 0 1-1.851-1.851c0-1.018.833-1.851 1.851-1.851a1.85 1.85 0 0 1 1.851 1.851ZM219.205 339.666a1.856 1.856 0 0 1-1.85 1.851 1.856 1.856 0 0 1-1.851-1.851c0-1.018.832-1.851 1.851-1.851 1.018 0 1.85.822 1.85 1.851ZM235.85 339.666a1.856 1.856 0 0 1-1.85 1.851 1.856 1.856 0 0 1-1.851-1.851c0-1.018.832-1.851 1.851-1.851 1.018 0 1.85.822 1.85 1.851ZM69.401 354.46a1.855 1.855 0 0 1-1.85 1.851 1.855 1.855 0 0 1-1.85-1.851c0-1.018.831-1.85 1.85-1.85 1.018 0 1.85.821 1.85 1.85ZM86.047 354.46a1.855 1.855 0 0 1-1.85 1.851 1.855 1.855 0 0 1-1.851-1.851c0-1.018.832-1.85 1.85-1.85 1.019 0 1.851.821 1.851 1.85ZM102.692 354.46a1.856 1.856 0 0 1-1.851 1.851 1.855 1.855 0 0 1-1.85-1.851c0-1.018.832-1.85 1.85-1.85 1.018 0 1.851.821 1.851 1.85ZM119.337 354.46a1.856 1.856 0 0 1-1.851 1.851 1.855 1.855 0 0 1-1.851-1.851c0-1.018.832-1.85 1.851-1.85 1.018 0 1.851.821 1.851 1.85ZM135.981 354.46a1.855 1.855 0 0 1-1.851 1.851 1.855 1.855 0 0 1-1.85-1.851c0-1.018.832-1.85 1.85-1.85 1.019 0 1.851.821 1.851 1.85ZM152.626 354.46a1.855 1.855 0 0 1-1.851 1.851 1.855 1.855 0 0 1-1.85-1.851c0-1.018.832-1.85 1.85-1.85 1.019 0 1.851.821 1.851 1.85ZM169.271 354.46a1.855 1.855 0 0 1-1.851 1.851 1.855 1.855 0 0 1-1.85-1.851c0-1.018.832-1.85 1.85-1.85 1.019 0 1.851.821 1.851 1.85ZM185.916 354.46a1.856 1.856 0 0 1-1.851 1.851 1.856 1.856 0 0 1-1.851-1.851c0-1.018.833-1.85 1.851-1.85s1.851.821 1.851 1.85ZM202.561 354.46a1.856 1.856 0 0 1-1.851 1.851 1.856 1.856 0 0 1-1.851-1.851c0-1.018.833-1.85 1.851-1.85s1.851.821 1.851 1.85ZM219.205 354.46a1.855 1.855 0 0 1-1.85 1.851 1.855 1.855 0 0 1-1.851-1.851c0-1.018.832-1.85 1.851-1.85 1.018 0 1.85.821 1.85 1.85ZM235.85 354.46a1.855 1.855 0 0 1-1.85 1.851 1.855 1.855 0 0 1-1.851-1.851c0-1.018.832-1.85 1.851-1.85 1.018 0 1.85.821 1.85 1.85ZM69.401 369.255c0 1.018-.832 1.85-1.85 1.85a1.855 1.855 0 0 1-1.85-1.85c0-1.019.831-1.851 1.85-1.851 1.018 0 1.85.832 1.85 1.851ZM86.047 369.255c0 1.018-.832 1.85-1.85 1.85a1.855 1.855 0 0 1-1.851-1.85c0-1.019.832-1.851 1.85-1.851 1.019 0 1.851.832 1.851 1.851ZM102.692 369.255c0 1.018-.833 1.85-1.851 1.85a1.855 1.855 0 0 1-1.85-1.85c0-1.019.832-1.851 1.85-1.851 1.018 0 1.851.832 1.851 1.851ZM119.337 369.255c0 1.018-.833 1.85-1.851 1.85a1.855 1.855 0 0 1-1.851-1.85c0-1.019.832-1.851 1.851-1.851 1.018 0 1.851.832 1.851 1.851ZM135.981 369.255c0 1.018-.832 1.85-1.851 1.85a1.855 1.855 0 0 1-1.85-1.85c0-1.019.832-1.851 1.85-1.851 1.019 0 1.851.832 1.851 1.851ZM152.626 369.255c0 1.018-.832 1.85-1.851 1.85a1.855 1.855 0 0 1-1.85-1.85c0-1.019.832-1.851 1.85-1.851 1.019 0 1.851.832 1.851 1.851ZM169.271 369.255c0 1.018-.832 1.85-1.851 1.85a1.855 1.855 0 0 1-1.85-1.85c0-1.019.832-1.851 1.85-1.851 1.019 0 1.851.832 1.851 1.851ZM185.916 369.255c0 1.018-.833 1.85-1.851 1.85a1.856 1.856 0 0 1-1.851-1.85c0-1.019.833-1.851 1.851-1.851s1.851.832 1.851 1.851ZM202.561 369.255c0 1.018-.833 1.85-1.851 1.85a1.856 1.856 0 0 1-1.851-1.85c0-1.019.833-1.851 1.851-1.851s1.851.832 1.851 1.851ZM219.205 369.255c0 1.018-.832 1.85-1.85 1.85a1.855 1.855 0 0 1-1.851-1.85c0-1.019.832-1.851 1.851-1.851 1.018 0 1.85.832 1.85 1.851ZM235.85 369.255c0 1.018-.832 1.85-1.85 1.85a1.855 1.855 0 0 1-1.851-1.85c0-1.019.832-1.851 1.851-1.851 1.018 0 1.85.832 1.85 1.851ZM67.55 385.899a1.85 1.85 0 1 0 .002-3.7 1.85 1.85 0 0 0-.001 3.7ZM84.196 385.9a1.851 1.851 0 1 0 0-3.702 1.851 1.851 0 0 0 0 3.702ZM100.841 385.9a1.851 1.851 0 1 0 0-3.703 1.851 1.851 0 0 0 0 3.703ZM119.337 384.049a1.857 1.857 0 0 1-1.851 1.851 1.856 1.856 0 0 1-1.851-1.851c0-1.019.832-1.851 1.851-1.851 1.018 0 1.851.832 1.851 1.851ZM135.981 384.049a1.856 1.856 0 0 1-1.851 1.851 1.856 1.856 0 0 1-1.85-1.851c0-1.019.832-1.851 1.85-1.851 1.019 0 1.851.832 1.851 1.851ZM150.775 385.9a1.85 1.85 0 1 0 0-3.701 1.85 1.85 0 0 0 0 3.701ZM167.42 385.9a1.85 1.85 0 1 0 0-3.701 1.85 1.85 0 0 0 0 3.701ZM184.065 385.9a1.851 1.851 0 1 0 0-3.703 1.851 1.851 0 0 0 0 3.703ZM200.71 385.9a1.851 1.851 0 1 0 0-3.703 1.851 1.851 0 0 0 0 3.703ZM217.355 385.9a1.85 1.85 0 1 0-.001-3.701 1.85 1.85 0 0 0 .001 3.701ZM234 385.9a1.85 1.85 0 1 0-.001-3.701A1.85 1.85 0 0 0 234 385.9ZM69.401 398.843c0 1.018-.832 1.85-1.85 1.85a1.855 1.855 0 0 1-1.85-1.85c0-1.019.831-1.851 1.85-1.851 1.018 0 1.85.832 1.85 1.851ZM86.047 398.843c0 1.018-.832 1.85-1.85 1.85a1.855 1.855 0 0 1-1.851-1.85c0-1.019.832-1.851 1.85-1.851 1.019 0 1.851.832 1.851 1.851ZM102.692 398.843c0 1.018-.833 1.85-1.851 1.85a1.855 1.855 0 0 1-1.85-1.85c0-1.019.832-1.851 1.85-1.851 1.018 0 1.851.832 1.851 1.851ZM119.337 398.843c0 1.018-.833 1.85-1.851 1.85a1.855 1.855 0 0 1-1.851-1.85c0-1.019.832-1.851 1.851-1.851 1.018 0 1.851.832 1.851 1.851ZM135.981 398.843c0 1.018-.832 1.85-1.851 1.85a1.855 1.855 0 0 1-1.85-1.85c0-1.019.832-1.851 1.85-1.851 1.019 0 1.851.832 1.851 1.851ZM152.626 398.843c0 1.018-.832 1.85-1.851 1.85a1.855 1.855 0 0 1-1.85-1.85c0-1.019.832-1.851 1.85-1.851 1.019 0 1.851.832 1.851 1.851ZM169.271 398.843c0 1.018-.832 1.85-1.851 1.85a1.855 1.855 0 0 1-1.85-1.85c0-1.019.832-1.851 1.85-1.851 1.019 0 1.851.832 1.851 1.851ZM185.916 398.843c0 1.018-.833 1.85-1.851 1.85a1.856 1.856 0 0 1-1.851-1.85c0-1.019.833-1.851 1.851-1.851s1.851.832 1.851 1.851ZM202.561 398.843c0 1.018-.833 1.85-1.851 1.85a1.856 1.856 0 0 1-1.851-1.85c0-1.019.833-1.851 1.851-1.851s1.851.832 1.851 1.851ZM219.205 398.843c0 1.018-.832 1.85-1.85 1.85a1.855 1.855 0 0 1-1.851-1.85c0-1.019.832-1.851 1.851-1.851 1.018 0 1.85.832 1.85 1.851ZM235.85 398.843c0 1.018-.832 1.85-1.85 1.85a1.855 1.855 0 0 1-1.851-1.85c0-1.019.832-1.851 1.851-1.851 1.018 0 1.85.832 1.85 1.851Z" fill="#fff"/><path d="M439.026 581.311c.164-.098.164-.229.186-.361-.153.121-.219.23-.186.361ZM431.175 555.742c0 .033 0 .077.011.109 0-.032 0-.076-.011-.109ZM439.169 574.851h-.285c-.022-.307.317-.11.241-.383-.405-.088.022-.471-.197-.559.033 0 .044-.131.164-.131-.219-.033-.055-.143-.11-.219-.065-.033-.065.022-.131.054l-.088-.197c.066-.076.198-.109.219-.022.055-.525.165-3.011.044-3.558-.164.076-.044.24-.295.317-.154-.142.043-.219-.11-.274.383-.065.077-.328.46-.449l-.219-.033.131-.076c-.219-.646-.109-.143-.054-.723-.033-.339-.329-.493-.219-.679 0 .033-.132.11-.186.022.186-.022-.132-.23.054-.274-.022-.087 0-.361-.252-.263.132-.054.187-.295.296-.153.011-.076.044-.164-.011-.219l-.077.11c-.032-.285.165-.438-.065-.614l-.099.099c-.022-.164-.033-.307.219-.372l.077.175c-.011-.274-.022-.449-.153-.679l-.011.088c-.252-.296-.46-1.84-.778-2.125l-.197.121-.164-.241c0 .022.646.12.58.142-.044-.504-.098-3.121.066-3.581.12-.186.317-.022.35-.022-.065-.23-.208-.109-.186-.295.033-.055.153.022.186.043-.022-.087.055-.164-.044-.175-.076.099-.317.044-.481.088l.032-.252.154.022c.011-.055-.416-.153-.329-.394.088-.406.044-.865.099-1.271.087.011.142.099.197.187.011-.055-.011-.143.055-.187-.165.088-.099-.175-.176-.109-.372-.329 0-.701-.251-.986-.34-.033-5.848-.92-6.253-.952.011-.088.022-.176.055-.197-.099.01-.154.186-.099.273l.219.033c.066.208-.131.044-.12.241-.176 0-.208-.186-.219-.35-.033.142-.165.284.032.361-.076.131-.219-.022-.295.131.044.121.219.296.109.417h-.033c-.197.328.252.525.055.821l-.055-.033c-.109.099.022.318-.098.515.033-.055.164-.099.186.022-.12.219-.011.372-.164.536l.164.164c-.055.778.022 3.866.088 4.643l-.033-.032c.076 1.193.065 3.635.295 4.862-.175.197-.131.449-.186.657.077-.11.197-.077.186.011-.021.602.11.032.198.646.186.701.109 3.405-.011 4.04.262.329.087.756.262 1.074l-.065-.033c.054.175.043.766.033 1.369 0 .602.043 1.226.098 1.423l.033-.066c.197.351-.088.329-.142.625.273-.066.47.23.503.35h-.065c.065.175.35.559.416.843h-.154c.187.23.165.701.198.876-.022.416-.23 1.062.021 1.577l-.405.405.044.044s5.366-.197 6.428-1.018l.153-.011-.032-.121c.065-.164-.121-.219.032-.23v.219c.033-.164.121-.065.219-.022.011-.065.022-.131.066-.186-.066-.022-.066.033-.088.066-.065-.077-.219-.175-.153-.285 0-.164.252-.043.252-.23.022-.996.11-1.971-.022-2.956.066-.022.066 0 .099.022-.099-.296-.099-.559-.197-.833a.47.47 0 0 1 .219-.131c-.176.077-.285-1.489-.23-1.533ZM458.945 499.872c.164-.099.164-.23.175-.361-.153.12-.208.23-.175.361ZM459.131 499.5h-.01v.01l.01-.01ZM451.083 474.303c0 .033 0 .076.01.109 0-.044.011-.076-.01-.109ZM459.077 493.412h-.285c-.011-.307.318-.11.241-.384-.405-.087.022-.471-.186-.547.033 0 .044-.143.164-.132-.219-.032-.054-.142-.109-.219-.066-.032-.066.022-.132.055l-.087-.197c.066-.077.186-.109.219-.022.055-.525.164-3 .044-3.559-.165.077-.044.241-.296.318-.153-.143.044-.219-.11-.285.373-.066.077-.328.46-.438l-.219-.044.132-.076c-.23-.646-.11-.143-.055-.723-.033-.329-.329-.493-.219-.679 0 .033-.131.098-.186.011.186-.011-.132-.23.055-.274-.022-.087 0-.361-.263-.263.131-.043.186-.295.295-.142.011-.088.044-.164-.011-.219l-.076.109c-.033-.284.164-.438-.066-.613l-.098.099c-.011-.165-.033-.307.219-.373l.076.176c0-.274-.022-.449-.153-.679l-.011.076c-.252-.295-.46-1.839-.778-2.124l-.197.12-.164-.24c0 .021.646.12.581.142-.044-.504-.099-3.121.065-3.57.121-.186.318-.022.351-.022-.066-.23-.208-.109-.187-.296.033-.054.154.011.187.044-.022-.087.054-.164-.044-.175-.077.11-.318.055-.482.088l.033-.252.153.022c.011-.055-.416-.165-.328-.406.087-.405.043-.865.098-1.27.088.011.143.099.197.197.011-.054-.011-.142.055-.197-.164.099-.098-.175-.175-.109-.372-.329 0-.701-.252-.986-.339-.033-5.848-.92-6.253-.953.011-.087.022-.175.055-.197-.099.011-.153.187-.099.274l.219.033c.066.208-.131.044-.12.241-.175 0-.208-.186-.219-.351-.022.143-.164.285.033.362-.077.131-.219-.033-.296.131.044.121.219.285.099.416h-.033c-.197.329.252.526.055.822l-.055-.033c-.11.098.022.317-.099.514.044-.054.176-.098.186.022-.12.219-.01.384-.164.537l.164.164c-.054.778.022 3.866.088 4.643l-.033-.033c.088 1.194.066 3.636.296 4.862-.175.187-.132.449-.186.657.076-.109.197-.076.186.011-.022.603.109.044.197.646.186.701.109 3.406-.011 4.041.263.329.088.756.263 1.073l-.066-.032c.055.175.044.766.033 1.368 0 .603.044 1.216.099 1.424l.032-.055c.187.351-.087.329-.153.613.285-.065.471.23.504.351h-.066c.066.175.351.558.416.843h-.153c.186.23.164.701.197.876-.022.405-.23 1.062.022 1.577l-.405.405.055.044s5.365-.197 6.428-1.007l.153-.011-.033-.132c.055-.164-.121-.219.033-.23v.219c.033-.164.12-.065.219-.011.011-.065.022-.131.066-.186-.066-.022-.066.033-.099.055-.066-.077-.219-.175-.153-.285 0-.164.252-.044.252-.23.021-.996.109-1.971-.022-2.956.065-.033.065 0 .098.021-.098-.295-.098-.558-.197-.832.066-.076.153-.109.219-.142-.142.087-.252-1.479-.208-1.511ZM452.244 577.074c0 .032 0 .065.011.098 0-.033.01-.066-.011-.098Z" fill="#69779B"/><path d="m459.778 594.442-.285-.033c0-.285.329-.066.263-.329-.394-.109.055-.427-.153-.525.032 0 .043-.121.175-.11-.219-.044-.044-.131-.099-.219-.055-.033-.066.022-.131.044l-.077-.186c.077-.066.197-.088.219-.011.088-.471.362-2.782.263-3.296-.164.065-.055.219-.318.273-.142-.142.055-.197-.098-.262.383-.044.098-.296.493-.384l-.219-.043.131-.066c-.208-.592-.11-.132-.033-.646-.022-.296-.317-.449-.197-.614 0 .022-.142.088-.186.011.186-.01-.132-.208.066-.24-.022-.077.011-.329-.252-.252.131-.033.186-.252.295-.121.011-.076.055-.142-.011-.197l-.076.099c-.033-.252.175-.384-.055-.548l-.109.088c-.011-.154-.033-.274.229-.329l.077.153c0-.251-.011-.394-.142-.613l-.011.077c-.252-.274-.416-1.665-.723-1.916l-.208.109-.164-.219c0 .022.646.121.58.142 0-.449-.076-2.792.066-3.208.12-.164.317-.011.35-.011-.065-.208-.208-.099-.186-.274.033-.044.153.022.186.044-.022-.077.055-.142-.044-.153-.076.087-.317.043-.481.065l.032-.219.154.022c.011-.044-.427-.153-.329-.361.077-.361.044-.767.088-1.139.088.011.142.088.197.175.011-.043-.011-.131.055-.175-.165.077-.099-.164-.175-.098-.373-.296-.011-.625-.263-.887-.34-.033-5.859-.866-6.264-.887.011-.077.022-.154.055-.176-.099.011-.143.165-.099.241l.219.022c.066.186-.131.033-.12.219-.175 0-.208-.164-.219-.317-.022.131-.164.251.033.317-.077.121-.219-.022-.296.121.044.109.219.262.109.372h-.032c-.198.285.251.46.065.723l-.054-.033c-.11.087.021.285-.088.449.044-.044.175-.077.186.022-.12.186-.011.328-.153.471l.164.142c-.055.69.099 3.406.11 4.095l-.022-.022c.054 1.052-.033 3.209.175 4.293-.175.164-.142.394-.197.57.076-.099.197-.055.186.011-.033.536.12.043.175.58.142.635-.098 2.935-.263 3.471.241.296.044.646.197.942l-.054-.033c.087.307-.197 2.015-.11 2.376l.044-.043c.153.317-.131.262-.219.492.285-.021.438.252.46.351l-.055-.011c.044.153.285.504.307.766l-.154-.022c.165.22.077.603.099.756-.077.34-.361.854-.164 1.325l-.449.274.044.044s5.332.81 6.493.252l.154.021-.022-.12c.076-.142-.099-.219.054-.208l-.022.197c.044-.142.132-.044.22.022a.237.237 0 0 1 .087-.164c-.055-.033-.066.022-.098.043-.055-.087-.198-.208-.121-.295.022-.154.252 0 .274-.175.142-.931.35-1.829.339-2.771.066-.022.066.011.088.033-.055-.285-.033-.537-.088-.799.077-.066.165-.088.23-.11-.164.055-.131-1.424-.098-1.445ZM480.146 575.179c0 .033.01.055.01.088 0-.033.011-.055-.01-.088Z" fill="#69779B"/><path d="m487.756 591.507-.285-.022c0-.263.318-.066.263-.318-.394-.109.055-.405-.153-.493.033 0 .044-.12.175-.109-.208-.044-.044-.121-.099-.197-.054-.033-.065.022-.131.033l-.077-.176c.077-.065.197-.076.219 0 .088-.448.362-2.617.263-3.11-.164.055-.055.209-.317.263-.143-.131.054-.186-.099-.252.383-.043.099-.284.482-.372l-.219-.044.131-.065c-.208-.57-.109-.143-.044-.625-.021-.284-.317-.416-.208-.569 0 .022-.142.088-.186.011.186-.011-.131-.197.066-.23-.022-.066.011-.307-.252-.23.132-.044.186-.241.296-.12.011-.066.055-.132-.011-.187l-.077.088c-.033-.23.175-.361-.055-.515l-.109.088c-.011-.142-.033-.252.23-.307l.077.143c0-.23-.011-.373-.143-.57l-.011.066c-.252-.252-.427-1.555-.733-1.796l-.198.099-.164-.197c0 .021.646.12.581.131-.011-.416-.099-2.617.043-3.001.11-.153.318-.01.351-.01-.066-.198-.208-.088-.186-.252.032-.044.153.022.186.043-.022-.076.055-.131-.044-.142-.077.088-.318.033-.482.066l.022-.208.153.011c.011-.044-.427-.143-.328-.34.076-.339.033-.722.076-1.062.099.011.143.088.198.164.011-.044-.011-.12.054-.164-.164.077-.109-.153-.175-.088-.372-.273-.022-.591-.274-.832-.339-.044-5.858-.799-6.263-.854.011-.066.022-.142.054-.164-.098.011-.142.153-.087.23l.219.022c.076.175-.132.032-.121.197-.175 0-.208-.154-.23-.296-.022.121-.153.241.033.296-.076.109-.219-.022-.295.109.043.099.219.241.109.351h-.033c-.197.273.252.438.066.679l-.055-.033c-.109.087.033.263-.087.427.032-.044.164-.077.186.022-.121.175-.011.317-.154.438l.176.142c-.055.646.12 3.209.131 3.855l-.033-.022c.066.996-.011 3.022.197 4.052-.175.153-.142.372-.197.536.077-.088.197-.055.186.011-.033.482.121.033.176.526.142.569-.099 2.737-.263 3.241.241.274.044.613.197.876l-.055-.033c.088.285-.197 1.895-.109 2.223l.032-.044c.154.296-.131.241-.219.471.285-.022.438.241.46.329l-.065-.011c.043.142.284.482.317.712l-.153-.022c.164.208.088.569.098.712-.076.317-.361.799-.164 1.248l-.449.252.044.044s5.333.777 6.494.262l.153.022-.011-.12c.077-.132-.098-.208.055-.186l-.022.186c.044-.143.131-.033.219.022.022-.055.033-.11.088-.154-.055-.032-.066.011-.099.033-.055-.076-.197-.186-.12-.274.021-.142.251.001.273-.164.143-.876.351-1.719.34-2.617.065-.022.065.011.087.033-.065-.274-.032-.515-.087-.756.076-.065.164-.076.23-.098-.11.098-.088-1.292-.055-1.314ZM414.737 581.388c0 .033.011.055.011.088 0-.033.011-.055-.011-.088Z" fill="#69779B"/><path d="m422.349 597.716-.285-.022c0-.263.317-.066.263-.318-.395-.109.054-.405-.154-.493.033 0 .044-.12.176-.109-.209-.044-.044-.121-.099-.197-.055-.033-.066.022-.131.033l-.066-.176c.077-.065.197-.076.219 0 .087-.449.361-2.617.263-3.109-.165.054-.055.208-.318.262-.142-.131.055-.186-.098-.252.383-.043.098-.284.481-.372l-.219-.044.132-.065c-.208-.57-.11-.143-.044-.625-.022-.273-.318-.416-.208-.569 0 .022-.142.088-.186.011.186-.011-.132-.197.065-.23-.021-.066.011-.307-.251-.23.131-.044.186-.241.295-.12.011-.066.055-.132-.011-.187l-.076.088c-.033-.241.175-.361-.055-.515l-.11.088c-.011-.142-.032-.263.23-.307l.077.143c0-.23-.011-.373-.142-.57l-.011.066c-.252-.252-.427-1.555-.734-1.796l-.197.099-.164-.197c0 .021.646.12.58.131-.011-.416-.099-2.617.044-3.001.12-.153.317-.01.35-.01-.065-.198-.208-.088-.186-.252.033-.044.153.022.186.043-.022-.076.055-.131-.044-.142-.076.088-.317.033-.481.066l.022-.208.153.011c.011-.044-.427-.143-.329-.34.077-.339.033-.722.077-1.062.088.011.142.088.197.164.011-.043-.011-.12.055-.164-.164.077-.11-.153-.175-.088-.373-.273-.022-.591-.274-.832-.34-.044-5.859-.799-6.264-.854.011-.066.022-.142.055-.164-.099.011-.142.153-.088.23l.219.022c.077.175-.131.033-.12.197-.175 0-.208-.154-.23-.296-.022.121-.153.241.033.296-.077.109-.219-.022-.296.109.055.099.219.241.11.351h-.033c-.197.273.263.438.065.679l-.054-.033c-.11.087.033.274-.088.427.033-.044.164-.077.186.022-.12.175-.011.317-.153.438l.175.142c-.055.646.121 3.209.132 3.855l-.022-.022c.054.996-.011 3.022.197 4.052-.175.153-.143.372-.197.536.076-.088.197-.055.186.011-.033.482.12.033.175.526.142.569-.099 2.737-.263 3.241.241.274.044.613.197.876l-.054-.033c.087.285-.198 1.895-.11 2.223l.044-.044c.153.296-.132.241-.219.471.285-.022.438.23.46.329l-.066-.011c.044.142.285.482.318.712l-.154-.022c.165.208.077.569.099.712-.077.317-.361.799-.164 1.248l-.449.252.043.044s5.333.777 6.494.262l.153.022-.011-.12c.077-.132-.098-.208.055-.186l-.022.186c.044-.143.132-.033.208.022.022-.055.033-.11.088-.154-.055-.032-.066.011-.099.033-.054-.076-.197-.186-.12-.273.022-.143.252-.001.274-.165.142-.876.35-1.719.339-2.617.066-.022.066.011.088.033-.055-.274-.022-.515-.088-.756.077-.065.164-.076.23-.098-.131.098-.109-1.292-.076-1.314ZM497.6 507.318c.175-.054.186-.175.219-.284-.164.077-.241.164-.219.284ZM490.855 485.33c0 .033 0 .055.011.087 0-.021 0-.054-.011-.087ZM498.466 501.658l-.274-.022c0-.263.318-.066.263-.318-.394-.109.055-.405-.153-.493.032 0 .043-.12.175-.109-.219-.044-.044-.121-.099-.197-.054-.033-.065.022-.131.033l-.066-.176c.066-.065.197-.076.219 0 .088-.449.362-2.617.263-3.11-.164.055-.055.208-.318.263-.142-.131.055-.186-.098-.252.383-.043.098-.284.493-.372l-.219-.044.131-.065c-.208-.57-.109-.143-.044-.625-.022-.273-.317-.416-.208-.569 0 .022-.142.088-.186.011.186-.011-.131-.197.066-.23-.022-.066.011-.307-.252-.23.131-.044.186-.241.296-.121.01-.065.054-.131 0-.186l-.077.088c-.033-.241.175-.361-.055-.515l-.109.088c-.011-.143-.033-.263.23-.307l.076.143c0-.23-.011-.373-.142-.57l-.011.066c-.252-.252-.427-1.555-.734-1.796l-.197.099-.164-.198c0 .022.646.121.58.132-.011-.416-.098-2.617.044-3.001.121-.153.318-.011.35-.011-.065-.197-.208-.087-.186-.251.033-.044.154.021.186.043-.021-.076.055-.131-.043-.142-.077.088-.318.033-.482.066l.033-.208.153.011c.011-.044-.427-.143-.329-.34.077-.339.033-.723.077-1.062.088.011.142.088.197.164.011-.044-.011-.12.055-.164-.164.077-.11-.153-.175-.088-.373-.273-.022-.591-.274-.832-.339-.044-5.859-.799-6.264-.854.011-.066.022-.142.055-.164-.098.011-.142.153-.098.23l.218.022c.077.175-.131.032-.12.197-.175 0-.208-.154-.219-.296-.022.12-.153.241.033.296-.077.109-.219-.022-.296.109.055.099.219.241.11.351h-.033c-.197.273.263.438.066.678l-.055-.032c-.11.087.033.262-.088.427.044-.044.165-.077.186.022-.12.175-.011.317-.153.438l.175.142c-.054.646.121 3.208.132 3.855l-.022-.022c.055.996-.011 3.022.197 4.051-.175.154-.142.373-.197.537.076-.088.197-.055.186.011-.033.493.12.033.175.526.143.569-.098 2.737-.263 3.241.241.274.044.613.197.876l-.054-.033c.087.285-.197 1.895-.11 2.223l.033-.044c.153.296-.131.241-.219.471.285-.022.438.23.46.329l-.066-.011c.044.142.285.482.318.711l-.153-.021c.164.208.076.569.098.711-.077.318-.361.8-.164 1.249l-.449.252.044.043s5.333.778 6.493.263l.154.022-.022-.12c.076-.132-.099-.208.055-.186l-.022.186c.054-.143.131-.033.219.022a.246.246 0 0 1 .087-.154c-.055-.033-.066.011-.098.033-.055-.077-.197-.186-.121-.274.022-.142.252 0 .274-.164.142-.876.35-1.719.339-2.617.066-.022.066.011.088.033-.055-.274-.033-.515-.088-.756.066-.066.165-.076.23-.098-.175.098-.142-1.293-.109-1.314ZM475.809 519.539c.175-.055.197-.175.219-.284-.153.077-.23.153-.219.284ZM469.063 497.54c0 .033.011.066.011.099a.107.107 0 0 0-.011-.099Z" fill="#69779B"/><path d="m476.685 513.878-.285-.033c0-.262.318-.065.263-.306-.394-.11.055-.405-.153-.493.033 0 .044-.12.175-.109-.208-.044-.044-.132-.099-.209-.054-.032-.065.022-.131.044l-.077-.175c.077-.066.197-.077.219 0 .088-.449.362-2.617.263-3.099-.164.055-.055.208-.317.263-.143-.132.054-.186-.099-.252.383-.044.099-.285.493-.372l-.219-.044.131-.066c-.208-.569-.109-.142-.044-.624-.021-.285-.317-.416-.208-.569 0 .021-.142.087-.186.011.186-.011-.131-.198.066-.23-.022-.077.011-.307-.252-.23.131-.033.186-.241.296-.121.011-.066.054-.131-.011-.186l-.077.088c-.033-.241.175-.362-.055-.515l-.109.088c-.011-.143-.033-.263.23-.307l.076.142c0-.23-.01-.372-.142-.569l-.011.066c-.252-.252-.427-1.555-.734-1.796l-.197.098-.164-.197c0 .022.646.121.58.132-.01-.417-.098-2.618.044-3.001.11-.153.318-.011.351-.011-.066-.197-.208-.087-.186-.252.032-.044.153.011.186.044-.022-.066.054-.131-.044-.142-.077.087-.318.033-.482.065l.022-.208.153.022c0-.044-.427-.142-.328-.339.076-.34.033-.723.076-1.073.099.011.143.087.198.164.01-.044-.011-.121.054-.164-.164.076-.109-.154-.175-.088-.372-.274-.022-.591-.274-.832-.339-.044-5.858-.8-6.263-.854.011-.077.021-.143.054-.165-.098.011-.142.154-.087.23l.219.022c.076.175-.132.033-.121.197-.175 0-.208-.153-.23-.295-.022.12-.153.241.033.295-.076.11-.219-.022-.295.11.043.098.219.241.109.35h-.033c-.197.263.252.438.066.679l-.055-.033c-.109.088.033.274-.087.427.032-.043.164-.076.186.022-.121.186-.011.318-.154.438l.176.143c-.055.646.12 3.208.131 3.865l-.033-.022c.066.986-.011 3.023.197 4.052-.175.153-.142.372-.197.537.077-.088.197-.055.186.011-.033.481.121.032.175.525.143.57-.098 2.738-.262 3.242.241.273.043.613.197.876l-.055-.033c.088.284-.197 1.894-.109 2.223l.043-.044c.154.296-.131.241-.219.471.285-.011.438.241.46.328l-.065-.011c.043.143.284.482.317.712l-.153-.022c.164.208.087.57.098.712-.076.318-.361.799-.164 1.248l-.449.252.044.044s5.333.778 6.494.263l.153.022-.011-.121c.077-.131-.099-.208.055-.197l-.022.186c.044-.142.131-.032.219.022.022-.054.033-.109.087-.153-.054-.033-.065.011-.098.033-.055-.077-.197-.186-.121-.285.022-.142.252.011.274-.164.143-.876.351-1.719.34-2.617.065-.022.065.011.087.033-.065-.274-.033-.515-.087-.756.076-.066.164-.077.23-.099-.143.099-.121-1.292-.077-1.314ZM472.513 568.225c.175-.065.196-.207.229-.328-.175.088-.24.186-.229.328ZM465.976 542.766c0 .033 0 .066.01.109 0-.043.011-.076-.01-.109Z" fill="#69779B"/><path d="m473.422 561.677-.285-.032c0-.307.329-.077.263-.362-.394-.12.055-.471-.153-.569.033 0 .043-.132.175-.121-.219-.054-.044-.142-.099-.23-.054-.032-.065.022-.131.044l-.066-.197c.077-.077.197-.087.219 0 .099-.515.373-3.022.285-3.592-.164.066-.066.252-.318.307-.142-.153.055-.219-.087-.285.383-.044.098-.317.493-.416l-.219-.044.131-.065c-.208-.646-.099-.143-.033-.712-.022-.329-.317-.493-.197-.679 0 .022-.142.098-.186.011.186-.011-.132-.23.066-.263-.022-.088.01-.35-.252-.274.131-.044.197-.284.295-.131.011-.077.055-.164 0-.219l-.076.098c-.033-.273.175-.416-.055-.602l-.11.099c-.011-.165-.021-.296.23-.362l.077.165c0-.274-.011-.438-.142-.668l-.011.076c-.241-.295-.405-1.818-.712-2.091l-.208.12-.164-.241c0 .022.646.143.58.154 0-.493-.066-3.056.088-3.494.12-.175.317-.022.35-.011-.066-.23-.208-.109-.186-.295.044-.055.153.022.186.054-.022-.087.055-.164-.044-.175-.076.099-.317.044-.482.077l.033-.241.154.022c.01-.055-.417-.164-.329-.394.077-.406.044-.844.099-1.249.087.011.142.099.197.186.011-.054-.011-.142.054-.186-.164.088-.109-.175-.175-.109-.372-.318-.011-.679-.263-.964-.339-.044-5.858-.909-6.263-.942.011-.076.022-.164.054-.186-.098.011-.142.175-.098.263l.219.022c.066.208-.131.044-.121.23-.175 0-.208-.175-.219-.34-.021.143-.164.274.033.351-.076.131-.219-.033-.295.131.043.121.219.274.109.405h-.033c-.197.307.252.504.066.789l-.055-.033c-.109.099.022.307-.087.493.043-.055.164-.088.186.022-.121.208-.011.361-.154.514l.165.154c-.055.744.087 3.701.087 4.457l-.022-.033c.044 1.139-.043 3.493.154 4.676-.175.175-.143.427-.197.613.076-.099.197-.066.186.022-.044.58.12.043.175.624.142.679-.12 3.197-.285 3.789.241.317.044.712.186 1.029l-.054-.033c.087.34-.208 2.201-.132 2.596l.044-.055c.142.339-.131.285-.219.547.285-.022.438.274.46.384l-.066-.011c.044.164.274.558.307.832l-.153-.022c.164.23.076.657.087.832-.076.373-.361.942-.175 1.457l-.449.295.044.055s5.333.854 6.494.241l.153.022-.011-.132c.077-.153-.099-.24.055-.218l-.022.218c.054-.164.131-.043.219.022.022-.065.033-.131.087-.186-.054-.033-.065.022-.098.044-.055-.088-.197-.219-.121-.318.022-.164.252.001.274-.186.153-1.007.361-1.993.361-3.022.066-.022.066.011.088.044-.055-.318-.022-.592-.088-.876.077-.077.165-.088.23-.11-.175.022-.142-1.577-.098-1.61ZM425.808 526.251c.175-.065.186-.207.219-.327-.164.087-.241.185-.219.327ZM419.271 500.792c0 .033 0 .066.011.109 0-.032 0-.065-.011-.109Z" fill="#69779B"/><path d="m426.707 519.715-.285-.033c0-.307.328-.077.263-.361-.395-.121.054-.471-.154-.57.033 0 .044-.131.176-.12-.219-.055-.044-.143-.099-.23-.055-.033-.066.022-.131.044l-.066-.198c.066-.076.197-.087.219 0 .087-.514.372-3.022.285-3.591-.165.065-.055.252-.318.306-.142-.153.055-.219-.088-.284.384-.044.099-.318.493-.417l-.219-.043.132-.066c-.198-.646-.11-.142-.033-.712-.022-.328-.318-.493-.197-.679 0 .022-.143.099-.187.011.187-.011-.131-.23.066-.263-.022-.087.011-.35-.252-.273.132-.044.186-.285.296-.132.011-.076.055-.164 0-.219l-.077.099c-.033-.274.176-.416-.054-.603l-.11.099c-.011-.164-.022-.307.23-.361l.077.164c0-.274-.011-.438-.132-.668l-.011.077c-.241-.296-.405-1.818-.711-2.092l-.198.12-.164-.24c0 .021.635.142.581.153 0-.493-.066-3.055.087-3.493.121-.176.318-.022.351-.011-.066-.23-.208-.11-.187-.296.033-.055.154.022.187.055-.022-.088.054-.164-.044-.175-.077.098-.318.043-.482.076l.033-.241.153.022c.011-.055-.416-.164-.328-.394.076-.405.043-.843.087-1.248.088.011.143.098.197.186.011-.055-.011-.143.055-.186-.164.087-.098-.176-.175-.11-.372-.317-.011-.679-.263-.964-.339-.043-5.848-.908-6.264-.941.011-.077.022-.165.055-.186-.098.011-.153.175-.098.262l.219.022c.065.208-.132.044-.121.23-.175 0-.208-.175-.219-.339-.022.142-.164.274.033.35-.077.132-.219-.033-.296.132.044.12.219.273.11.405h-.033c-.197.306.252.503.055.788l-.055-.033c-.11.099.022.307-.088.493.033-.055.165-.087.186.022-.12.208-.01.361-.153.515l.164.153c-.065.745.088 3.701.088 4.457l-.022-.033c.044 1.139-.044 3.493.153 4.676-.175.175-.142.427-.197.613.077-.098.197-.066.186.022-.043.58.121.044.176.624.131.679-.121 3.198-.285 3.789.241.318.044.712.197 1.029l-.055-.032c.088.339-.208 2.201-.131 2.595l.033-.055c.153.34-.132.285-.219.548.284-.022.438.273.46.383l-.066-.011c.044.164.274.558.307.832l-.154-.022c.165.23.077.657.088.833-.077.372-.361.941-.175 1.456l-.449.296.044.054s5.332.855 6.493.241l.154.022-.022-.131c.076-.153-.099-.241.054-.219l-.022.219c.055-.164.132-.044.219.022a.322.322 0 0 1 .088-.186c-.055-.033-.066.022-.098.043-.055-.087-.198-.219-.121-.317.022-.164.252 0 .274-.186.153-1.008.361-1.993.361-3.023.066-.022.066.011.088.044-.055-.317-.022-.591-.088-.876.077-.077.164-.088.23-.109-.153.021-.12-1.588-.087-1.61ZM539.64 529.788c.175-.065.196-.207.229-.327-.175.087-.24.185-.229.327ZM533.103 504.329c0 .033 0 .066.01.109 0-.032 0-.076-.01-.109Z" fill="#69779B"/><path d="m540.538 523.252-.274-.033c0-.307.329-.077.263-.361-.394-.121.055-.471-.153-.57.033 0 .055-.131.175-.12-.219-.044-.044-.143-.098-.23-.055-.033-.066.022-.132.044l-.066-.198c.077-.076.198-.087.219-.011.099-.514.373-3.022.285-3.591-.164.065-.055.241-.317.306-.143-.153.054-.219-.088-.284.383-.044.099-.318.493-.417l-.219-.043.131-.066c-.197-.646-.098-.153-.033-.712-.022-.328-.317-.493-.197-.668 0 .022-.142.099-.186.011.186-.011-.131-.23.066-.263-.022-.087.011-.35-.252-.263.131-.043.197-.284.296-.131.01-.077.054-.153 0-.219l-.077.099c-.033-.274.175-.416-.055-.603l-.109.099c-.011-.164-.022-.307.23-.361l.076.175c0-.274-.011-.438-.142-.668l-.011.076c-.241-.295-.405-1.817-.712-2.091l-.197.109-.164-.23c0 .022.646.132.58.154 0-.493-.066-3.056.088-3.504.12-.176.317-.022.35-.011-.066-.219-.208-.11-.186-.296.033-.055.153.022.186.055-.022-.088.055-.154-.044-.165-.076.099-.317.044-.481.077l.032-.241.154.022c.011-.055-.427-.164-.329-.394.077-.394.044-.843.099-1.249.087.011.142.099.197.187.011-.055-.011-.143.055-.187-.165.088-.099-.175-.176-.109-.372-.318-.011-.69-.262-.964-.34-.043-5.859-.909-6.264-.941.011-.077.022-.165.055-.187-.099.011-.154.176-.099.263l.219.033c.066.197-.131.044-.12.23-.176 0-.208-.186-.219-.339-.022.142-.165.273.032.339-.076.131-.219-.022-.295.131.044.121.219.285.109.406h-.033c-.197.306.252.503.066.788l-.055-.033c-.109.099.022.307-.087.493.044-.055.164-.088.186.022-.12.208-.011.361-.153.515l.164.153c-.066.744.088 3.701.088 4.457l-.022-.033c.043 1.15-.044 3.493.153 4.676-.175.175-.142.427-.197.624.076-.11.197-.066.186.022-.044.58.12.044.175.635.132.679-.12 3.198-.285 3.789.241.328.044.712.198 1.029l-.055-.033c.087.34-.208 2.212-.132 2.596l.044-.055c.143.339-.131.285-.219.547.285-.021.438.274.46.384l-.066-.011c.044.164.274.558.307.832l-.153-.022c.164.241.076.668.087.832-.076.373-.361.942-.175 1.457l-.449.295.044.044s5.333.854 6.494.252l.153.022-.011-.131c.077-.154-.099-.241.055-.219l-.022.219c.055-.165.131-.044.219.022.022-.066.033-.132.087-.187-.054-.033-.065.022-.098.044-.055-.087-.197-.219-.121-.317.022-.165.252 0 .274-.187.154-1.007.362-1.993.362-3.022.065-.022.065.011.087.044-.055-.318-.022-.591-.087-.876.076-.077.164-.099.23-.121-.198-.011-.165-1.62-.132-1.642ZM451.674 541.725c.164-.055.186-.175.218-.273-.163.065-.24.153-.218.273ZM444.184 520.777c0 .033.011.054.011.087.01-.022.01-.054-.011-.087Z" fill="#69779B"/><path d="m452.473 536.174-.284-.022c0-.263.317-.066.263-.307-.395-.099.043-.394-.165-.482.033 0 .044-.109.175-.109-.219-.033-.043-.121-.098-.197-.066-.022-.066.021-.131.043l-.077-.164c.076-.066.197-.077.219-.011.087-.438.328-2.573.23-3.044-.164.066-.055.208-.318.263-.142-.121.055-.186-.098-.241.383-.055.098-.285.482-.383l-.219-.033.131-.066c-.241-.548-.11-.12-.077-.602-.044-.285-.339-.405-.241-.57 0 .022-.131.088-.186.011.186-.011-.142-.186.055-.23-.022-.065-.011-.306-.263-.219.132-.044.175-.252.296-.131.011-.066.044-.132-.011-.186l-.066.087c-.044-.23.153-.361-.087-.514l-.099.087c-.022-.142-.044-.252.208-.317l.077.142c-.011-.23-.033-.372-.175-.558v.065c-.263-.241-.504-1.522-.833-1.741l-.197.11-.175-.187c0 .022.646.077.58.099-.033-.416-.241-2.584-.12-2.968.109-.153.317-.032.35-.032-.076-.187-.219-.077-.197-.23.033-.044.153 0 .186.032-.022-.065.044-.142-.054-.142-.066.088-.318.066-.471.099l.011-.208h.153c0-.044-.427-.099-.35-.307.054-.35-.011-.712.021-1.062.099 0 .154.076.209.142 0-.044-.022-.109.043-.164-.164.087-.109-.143-.186-.077-.383-.241-.044-.569-.317-.788-.34-.011-5.892-.252-6.297-.23.011-.066.011-.132.044-.154-.099.022-.143.154-.077.23h.219c.077.165-.131.044-.109.198-.176.021-.219-.132-.241-.263-.022.12-.143.241.054.273-.076.11-.219 0-.295.132.055.087.23.208.131.317h-.033c-.175.274.285.395.11.636l-.066-.022c-.098.087.044.252-.065.405.032-.044.164-.088.186 0-.11.175.011.296-.132.427l.175.12c-.021.614.296 3.023.34 3.625l-.033-.022c.11.931.153 2.858.416 3.822-.164.153-.12.35-.164.515.066-.088.197-.055.186.01-.011.471.121.033.208.515.153.548-.066 2.639-.219 3.121.252.263.055.58.208.843l-.055-.033c.088.274-.164 1.818-.087 2.147l.033-.044c.153.285-.121.23-.208.449.284-.022.438.23.46.317l-.066-.01c.044.142.285.459.317.689l-.153-.011c.164.198.088.548.099.69-.066.307-.351.767-.154 1.194l-.449.241.044.044s5.344.766 6.494.262l.153.022-.022-.12c.077-.131-.098-.208.055-.186l-.022.186c.044-.131.132-.033.219.022a.243.243 0 0 1 .088-.153c-.055-.033-.066.021-.099.032-.055-.076-.197-.186-.12-.273.022-.143.252 0 .274-.165.131-.854.328-1.686.306-2.562.066-.022.066.011.088.033-.066-.263-.033-.493-.099-.745.066-.066.164-.077.23-.098-.109.076-.098-1.293-.066-1.314ZM495.247 557.669c.174-.077.196-.219.229-.361-.164.11-.24.208-.229.361ZM487.428 531.388c.011.033.011.066.022.11-.011-.033-.011-.066-.022-.11Z" fill="#69779B"/><path d="m496.166 550.639-.284-.021c0-.329.317-.088.251-.395-.394-.12.044-.503-.164-.602.033 0 .044-.142.164-.131-.219-.044-.054-.154-.109-.241-.055-.033-.066.022-.131.044l-.077-.209c.066-.087.197-.098.219-.01.077-.559.296-3.231.186-3.833-.164.076-.055.263-.307.339-.142-.153.055-.23-.098-.306.383-.066.088-.351.471-.471l-.219-.044.131-.088c-.241-.689-.109-.153-.076-.777-.044-.361-.351-.526-.241-.723 0 .033-.132.11-.187.022.187-.022-.142-.241.044-.296-.022-.087-.011-.383-.263-.273.132-.055.176-.318.296-.165 0-.087.044-.175-.022-.241l-.066.121c-.043-.296.154-.471-.087-.657l-.099.109c-.022-.175-.043-.328.208-.405l.088.186c-.011-.295-.033-.47-.186-.711v.087c-.263-.306-.526-1.938-.854-2.212l-.197.143-.176-.241c0 .022.646.087.581.12 0-.526-.362-3.307-.263-3.811.098-.208.318-.054.339-.054-.087-.241-.219-.088-.219-.296.033-.066.154 0 .187.033-.033-.088.032-.175-.066-.175-.066.12-.307.087-.471.142v-.263h.153c0-.066-.438-.12-.372-.383.033-.449-.055-.92-.055-1.369.099 0 .154.088.219.175 0-.066-.033-.142.033-.208-.153.121-.12-.175-.186-.087-.405-.285-.088-.745-.361-.997-.34 0-5.903-.011-6.297.033 0-.088 0-.164.033-.197-.099.033-.132.208-.066.284l.219-.01c.088.197-.131.065-.098.251-.176.033-.23-.153-.252-.306-.011.153-.132.306.065.339-.065.143-.219.011-.284.175.065.11.241.241.153.395h-.033c-.164.339.307.471.143.788l-.066-.022c-.099.11.055.307-.033.504.033-.055.153-.11.186 0-.098.23.022.361-.098.537l.186.142c0 .766.525 3.712.536 4.501l-.033-.022c.121 1.171.176 3.581.46 4.796-.164.186-.12.449-.164.646.066-.109.186-.077.186.011 0 .602.121.044.208.646.165.701-.033 3.373-.175 3.997.252.34.055.745.219 1.073l-.066-.033c.099.351-.142 2.333-.087 2.738l.033-.055c.142.351-.132.296-.23.57.284-.033.438.284.449.394l-.066-.011c.044.175.274.58.296.865l-.154-.022c.154.241.066.69.077.865-.077.394-.372.986-.186 1.522l-.46.318.044.055s5.333.887 6.493.23l.154.022-.011-.143c.076-.164-.099-.263.065-.241l-.032.23c.054-.175.131-.044.208.022.022-.066.044-.142.087-.197-.054-.033-.065.022-.098.044-.055-.099-.197-.23-.121-.34.022-.175.252 0 .274-.208.164-1.084.383-2.146.383-3.252.066-.022.066.011.088.044-.055-.34-.022-.635-.077-.942.066-.088.165-.109.23-.131-.044 0-.055-1.709-.022-1.731ZM507.237 568.116v.12c0-.043.011-.087 0-.12Z" fill="#69779B"/><path d="m513.961 588.112-.285-.011c0-.307.318-.099.252-.372-.394-.11.044-.471-.164-.57.033 0 .044-.142.164-.131-.219-.044-.044-.142-.099-.23-.054-.033-.065.022-.131.044l-.077-.197c.066-.077.198-.099.219-.011.088-.526.318-3.034.208-3.603-.164.066-.054.241-.317.307-.142-.154.055-.219-.099-.285.384-.044.099-.329.482-.427l-.219-.055.132-.066c-.209-.668-.11-.153-.022-.733-.011-.34-.296-.515-.176-.701 0 .022-.142.098-.186 0 .186 0-.12-.241.077-.274-.022-.088.022-.361-.241-.285.131-.043.197-.284.307-.131.011-.088.054-.164 0-.23l-.077.109c-.022-.284.197-.427-.033-.624l-.109.099c0-.175-.011-.318.241-.362l.065.176c.011-.285.011-.449-.109-.701l-.011.087c-.23-.317-.34-1.905-.635-2.212l-.208.11-.154-.252c0 .033.635.175.57.186-.022-.514.142-3.186.328-3.635.132-.176.318 0 .351 0-.044-.241-.197-.121-.154-.318.044-.055.154.033.176.066-.011-.088.065-.164-.033-.175-.088.098-.329.021-.493.054l.055-.252.153.033c.011-.054-.405-.197-.296-.438.121-.416.11-.876.197-1.292.088.022.132.11.176.208.011-.055 0-.142.076-.186-.175.077-.087-.197-.164-.12-.339-.362.055-.712-.175-1.019-.34-.066-5.76-1.38-6.165-1.434.022-.088.033-.176.065-.197-.098.01-.164.175-.12.273l.219.044c.055.219-.131.033-.142.241-.176-.011-.198-.208-.187-.383-.043.153-.186.284 0 .372-.087.131-.208-.044-.306.12.044.132.197.307.076.439l-.032-.011c-.219.317.208.558-.011.843l-.055-.044c-.11.099 0 .329-.131.515.043-.055.175-.088.186.032-.143.219-.044.384-.208.537l.153.175c-.11.8-.285 3.953-.263 4.775l-.022-.033c0 1.237-.186 3.756-.033 5.037-.186.186-.164.46-.23.668.077-.109.197-.066.187.022-.055.624.109.044.175.679.153.734-.055 3.526-.208 4.172.252.351.054.789.208 1.128l-.055-.033c.055.186-.011.789-.022 1.413 0 .624.011 1.259.066 1.467l.033-.055c.186.362-.099.329-.165.625.285-.055.46.251.493.372h-.066c.055.186.329.58.395.876h-.154c.187.241.143.723.176.898-.033.416-.263 1.084-.022 1.621l-.416.405.043.055s5.366-.011 6.461-.811l.153-.011-.032-.131c.065-.164-.121-.219.032-.23v.219c.033-.164.121-.066.22-.011a.45.45 0 0 1 .065-.197c-.065-.022-.065.033-.098.055-.066-.077-.219-.187-.154-.296 0-.164.252-.033.252-.23.055-1.029.175-2.015.077-3.033.066-.033.066 0 .098.032-.087-.306-.076-.58-.164-.854.066-.076.164-.098.219-.131-.109.055-.219-1.533-.153-1.566ZM516.359 536.107c.175-.054.208-.164.241-.273-.175.066-.252.153-.241.273ZM510.446 513.845l.011.077a.068.068 0 0 0-.011-.077ZM517.662 530.457l-.274-.054c.033-.274.329-.044.296-.307-.383-.142.088-.416-.109-.526.032 0 .054-.12.175-.098-.208-.066-.033-.131-.077-.219-.055-.033-.066.011-.131.033l-.055-.186c.077-.066.208-.066.219.011.142-.449.58-2.727.537-3.253-.165.044-.077.219-.34.252-.131-.153.066-.197-.077-.274.384-.011.121-.284.515-.35l-.208-.055.142-.055c-.164-.624-.098-.153 0-.679-.011-.317-.295-.492-.164-.657 0 .022-.142.088-.186 0 .186 0-.121-.219.077-.251-.022-.077.032-.329-.241-.274.131-.033.208-.252.306-.11.011-.076.055-.142.011-.208l-.076.088c-.011-.263.197-.383-.022-.581l-.11.088c0-.153-.011-.285.252-.328l.066.164c.011-.263.011-.416-.11-.635l-.011.076c-.219-.284-.372-1.763-.668-2.026l-.208.11-.153-.23c0 .022.635.142.569.153 0-.23 0-.974.011-1.697-.022-.756-.032-1.5.033-1.719.11-.186.318-.044.351-.033-.077-.23-.208-.088-.198-.285.033-.055.154.011.187.033-.022-.077.043-.164-.044-.164-.077.109-.318.065-.482.109l.022-.241.153.011c0-.054-.427-.12-.339-.361.076-.383-.044-.865-.044-1.292.099 0 .164.087.219.175 0-.055-.033-.142.022-.208-.153.12-.132-.175-.186-.088-.416-.273-.11-.711-.394-.952-.351-.022-5.87.394-6.264.503 0-.065 0-.12.033-.142-.088.033-.132.153-.066.208l.219-.033c.088.132-.121.055-.099.197-.175.033-.23-.087-.251-.186-.011.099-.132.219.065.23-.065.099-.219.022-.284.142.054.066.24.154.142.252h-.033c-.164.241.307.307.142.537l-.065-.011c-.099.077.054.208-.033.339.033-.043.153-.076.186 0-.099.154.033.241-.11.384l.176.109c-.022.592.241 2.99.186 3.68l-.022-.022c.055.963-.121 3.011.022 4.073-.186.143-.164.362-.23.526.077-.088.197-.044.186.033-.066.504.12.044.142.569.088.613-.328 2.891-.547 3.406.219.317-.011.657.109.953l-.054-.033c.054.317-.373 2.004-.329 2.387l.044-.044c.12.329-.153.263-.263.493.285 0 .416.285.427.394l-.066-.011c.033.153.241.537.241.789l-.153-.022c.142.23.033.624.033.788-.099.361-.416.898-.252 1.402l-.471.285.044.043s1.325.219 2.803.351c1.479.131 3.099.197 3.702-.055l.153.022-.011-.121c.088-.131-.088-.208.066-.186l-.033.186c.055-.131.131-.032.219.022.022-.054.044-.109.098-.153-.054-.033-.065.011-.098.033-.044-.077-.186-.186-.11-.274.033-.131.252.011.285-.142.186-.822.46-1.665.526-2.585.065-.011.065.011.087.033-.033-.284.011-.514-.022-.777.077-.055.176-.066.241-.077-.164.066-.011-1.38.033-1.402ZM532.445 574.379c.164-.087.186-.218.208-.349-.164.098-.229.207-.208.349ZM524.55 548.756c0 .033.011.065.011.109.011-.044.011-.076-.011-.109Z" fill="#69779B"/><path d="m533.015 567.656-.285-.011c-.011-.306.317-.098.241-.383-.394-.099.033-.482-.186-.569.033 0 .043-.143.164-.132-.219-.033-.055-.142-.11-.23-.065-.033-.065.022-.131.055l-.077-.197c.066-.077.197-.099.219-.022.066-.537.219-3.088.099-3.657-.164.076-.044.251-.307.328-.142-.153.044-.219-.109-.285.383-.065.087-.339.471-.46l-.219-.032.131-.077c-.241-.657-.109-.153-.077-.745-.043-.339-.339-.493-.24-.69 0 .033-.132.11-.187.022.187-.022-.142-.23.055-.284-.022-.088-.011-.373-.263-.263.132-.055.176-.307.296-.154 0-.087.044-.164-.011-.229l-.066.109c-.043-.285.154-.449-.087-.624l-.099.109c-.022-.175-.044-.317.208-.383l.088.175c-.011-.284-.033-.449-.175-.69v.088c-.263-.296-.504-1.862-.833-2.135l-.197.131-.175-.23c0 .022.646.099.58.131-.032-.514-.24-3.164-.109-3.635.109-.186.317-.044.35-.044-.076-.23-.219-.098-.197-.296.033-.054.154.011.186.044-.022-.087.044-.164-.054-.175-.066.109-.318.077-.471.12l.011-.251.153.011c0-.055-.427-.132-.35-.384.054-.427 0-.876.021-1.303.099.011.154.088.209.175 0-.054-.022-.142.043-.197-.164.11-.109-.175-.186-.087-.383-.296-.044-.712-.306-.975-.34-.022-5.892-.449-6.297-.438 0-.088.011-.175.044-.197-.099.022-.143.186-.077.274l.219.011c.077.208-.131.054-.109.252-.176.01-.219-.165-.241-.329-.022.142-.143.296.055.35-.066.143-.219-.011-.285.154.055.12.23.263.131.405h-.033c-.175.328.285.493.11.799l-.055-.033c-.098.11.044.318-.066.504.033-.055.165-.109.187.011-.11.219.011.372-.132.526l.175.153c-.022.767.296 3.767.34 4.534l-.033-.033c.109 1.16.142 3.559.416 4.752-.164.186-.12.449-.164.646.066-.109.197-.076.186.011-.011.592.12.033.208.635.175.679.044 3.329-.088 3.943.263.328.077.733.241 1.051l-.065-.033c.098.339-.088 2.311.011 2.705l.032-.055c.165.351-.109.307-.197.58.285-.043.449.252.471.373h-.065c.054.175.306.558.35.843l-.153-.011c.175.241.109.679.131.854-.055.394-.318.997-.099 1.522l-.438.351.044.054s5.366.428 6.494-.295l.153.011-.022-.132c.077-.164-.109-.241.044-.23l-.011.23c.044-.164.132-.054.219.011a.496.496 0 0 1 .077-.197c-.066-.033-.066.022-.099.055-.054-.088-.208-.208-.131-.318.011-.175.252-.011.263-.208.098-1.04.263-2.047.208-3.099.066-.022.065 0 .087.033-.076-.317-.054-.591-.131-.887.066-.077.164-.109.23-.131-.142-.011-.186-1.643-.153-1.676Z" fill="#69779B"/><path d="M206.841 556.903c1.796 1.248 3.68 2.551 5.421 3.756a239.64 239.64 0 0 0 2.716 1.828c.339.318.876.679 1.259.975-.208-.175-.099-.164.066-.044 1.204.854.109.011 1.347.843.689.439 2.255 1.545 3.832 2.672 2.223 1.599 4.479 3.22 5.552 3.986.077-.251.11-.405.153-.525.154-.789.362-1.577.559-2.355.098-.394.208-.777.307-1.16.032-.154.076-.307.109-.449.022-.11.044-.208.066-.307v.088c.186-.843 1.533-5.53 1.752-6.505l-.044.131c.164-.865.241-.711.449-1.368-.131.054-.011-.679.055-.964l.022.022c.087-.416.241-1.391.405-2.081l.055.044c.087-.591.394-1.664.503-2.07.274-.93.767-2.354 1.019-3.635l.394-.767.011-.12.394-2.836c.077-.646-2.617.854-2.65.777.197-.076.394-.164.449-.164-.066-.011-.449.131-.646.241v.098c-.46.23-.131 0-.58.197-.055-.054.361-.251.722-.416-.339.132-.69.219-.788.351-.329.109 0-.099-.383.033-.263.131-.581.35-.909.438v-.011c-.778.241-1.106.591-1.818.81l.066-.055c-.252.066-.712.318-1.172.46.131-.044.263-.033 0 .088-.515.164-.843.361-1.237.46l-.329.219c-1.752.722-8.607 3.734-10.359 4.489l.065-.043c-1.708.679-4.172 1.73-6.833 2.869ZM201.596 534.958c1.785-1.27 3.647-2.595 5.377-3.822a145.036 145.036 0 0 0 2.639-1.938c.416-.208.931-.591 1.336-.854-.241.131-.186.033-.022-.088 1.216-.843.055-.098 1.26-.974.646-.493 2.212-1.599 3.81-2.694 2.256-1.544 4.545-3.121 5.629-3.866-.208-.153-.34-.241-.449-.317a34.337 34.337 0 0 1-2.026-1.336c-.328-.23-.668-.46-.985-.679-.132-.088-.263-.175-.384-.263l-.263-.164.077.022c-.734-.46-4.687-3.318-5.53-3.866l.099.088c-.756-.449-.592-.471-1.139-.887.011.142-.646-.23-.887-.384l.022-.011c-.362-.23-1.227-.7-1.818-1.095l.055-.043c-.526-.285-1.424-.942-1.785-1.172-.789-.581-1.96-1.522-3.077-2.201l-.592-.635-.109-.055-2.541-1.336c-.58-.296-.087 2.748-.164 2.759-.011-.208-.022-.416-.011-.481-.033.054-.033.47 0 .689l.088.033c.054.504-.044.121-.011.614-.077.032-.11-.428-.143-.822.011.362-.022.723.066.865-.011.34-.088-.032-.099.373.033.284.132.668.099 1.007l-.011-.011c-.033.821.175 1.238.142 1.982l-.032-.076c-.033.262.054.777.032 1.259.011-.132.055-.252.077.022-.022.547.044.92.011 1.314l.088.372c.087 1.895.58 9.374.7 11.268l-.01-.076c.164 1.905.317 4.588.481 7.479ZM170.825 483.173c.69.876 1.413 1.807 2.081 2.661.394.492.755.952 1.051 1.303.121.208.329.46.471.668-.077-.121-.022-.099.044-.011.46.602.054.022.525.613.263.318.865 1.095 1.468 1.884l2.102 2.781a4.13 4.13 0 0 0 .154-.23c.197-.361.416-.712.635-1.062l.328-.526c.044-.066.088-.131.121-.208.022-.044.054-.098.076-.142l-.011.044c.219-.384 1.588-2.464 1.84-2.913l-.044.054c.208-.394.23-.317.427-.602-.076.011.099-.339.176-.46l.01.011c.11-.197.329-.646.515-.952l.022.032c.131-.273.449-.744.559-.941.273-.416.733-1.03 1.051-1.621l.306-.318.022-.054.624-1.325c.143-.307-1.401.022-1.412-.022a1.08 1.08 0 0 1 .252-.011c-.033-.022-.241-.011-.351.022l-.011.043c-.251.044-.065-.021-.317.011-.022-.032.219-.065.416-.087-.186.011-.372 0-.438.055-.175 0 .011-.044-.197-.044-.143.022-.34.076-.515.076v-.011c-.416 0-.624.121-1.007.121l.043-.022c-.131-.011-.394.044-.635.044.066 0 .132.022-.011.044-.284 0-.47.043-.668.032l-.186.055c-.963.088-4.763.515-5.738.624l.033-.011c-.975.11-2.332.252-3.811.395ZM293.34 542.831c.898-.668 1.84-1.369 2.705-2.015.504-.383.974-.733 1.325-1.018.208-.11.471-.307.679-.449-.121.066-.099.022-.011-.044.613-.438.022-.055.635-.514a69.336 69.336 0 0 1 1.916-1.424c1.139-.821 2.289-1.643 2.836-2.037-.109-.077-.175-.12-.23-.164a21.38 21.38 0 0 1-1.051-.657c-.175-.11-.35-.23-.514-.34a22.528 22.528 0 0 1-.198-.131c-.043-.022-.087-.055-.142-.077l.044.011c-.383-.23-2.431-1.642-2.869-1.905l.055.044c-.395-.219-.307-.23-.592-.438.011.076-.328-.11-.46-.187l.011-.01c-.186-.11-.635-.34-.941-.537l.032-.022c-.273-.142-.733-.46-.919-.58-.406-.285-1.019-.756-1.599-1.084l-.307-.318-.055-.022-1.314-.657c-.306-.142-.011 1.402-.054 1.413-.011-.11-.011-.219-.011-.252-.022.033-.011.241.011.35l.043.011c.033.252-.022.066 0 .318-.032.011-.065-.219-.076-.416.011.186 0 .372.044.438 0 .175-.044-.011-.044.197.022.142.076.339.065.514h-.011c-.01.417.11.625.099 1.008l-.011-.044c-.011.132.033.394.033.635 0-.065.022-.131.044.011 0 .285.033.471.022.668l.054.186c.066.964.406 4.775.482 5.749l-.011-.032c.066.985.175 2.354.285 3.821ZM247.622 562.028c1.467 1.62 3 3.329 4.413 4.905.843.92 1.609 1.752 2.223 2.399.262.394.69.865.996 1.237-.153-.219-.055-.186.077-.022.974 1.106.098.044 1.117 1.139.569.591 1.839 2.015 3.121 3.471 1.796 2.07 3.624 4.161 4.489 5.147.132-.23.197-.361.263-.482.329-.733.712-1.445 1.095-2.168.186-.361.384-.712.559-1.062.076-.143.142-.274.208-.416.044-.099.087-.187.131-.285l-.011.088c.373-.778 2.76-5.038 3.198-5.936l-.077.11c.351-.8.394-.646.756-1.227-.143.022.142-.668.273-.919l.022.021c.187-.383.559-1.292.876-1.927l.044.055c.219-.559.767-1.522.964-1.906.482-.843 1.292-2.113 1.829-3.307l.558-.657.044-.12 1.04-2.672c.23-.613-2.748.23-2.759.153a5.46 5.46 0 0 1 .482-.065c-.055-.033-.471.022-.679.076l-.022.099c-.493.12-.121-.033-.614.055-.043-.066.406-.165.8-.23-.351.054-.723.054-.854.164-.34.022.022-.099-.384-.055-.284.066-.646.208-.985.219v-.011c-.81.066-1.205.318-1.949.373l.076-.033c-.262 0-.766.142-1.237.175.131-.011.263.022-.022.077-.548.043-.898.153-1.303.164l-.361.131c-1.873.307-9.243 1.654-11.115 1.982l.065-.022c-1.85.329-4.489.789-7.347 1.282ZM237.076 533.184c2.136.471 4.369.964 6.439 1.424 1.216.262 2.333.492 3.209.657.438.175 1.062.295 1.533.427-.252-.088-.154-.121.054-.066 1.435.328.11-.022 1.566.274.8.153 2.672.569 4.556 1.018 2.661.635 5.366 1.27 6.647 1.577-.033-.263-.044-.416-.066-.548a41.767 41.767 0 0 1-.372-2.398c-.055-.405-.11-.799-.154-1.193a63.66 63.66 0 0 0-.065-.46c-.022-.11-.044-.208-.055-.307l.033.077c-.153-.854-.679-5.705-.843-6.691v.131c-.176-.854-.044-.755-.099-1.445-.109.109-.274-.624-.317-.909l.032.011c-.076-.427-.306-1.38-.405-2.081l.066.022c-.142-.58-.263-1.686-.318-2.113-.098-.964-.186-2.475-.438-3.756l.077-.854-.033-.121-.712-2.781c-.175-.635-2.102 1.785-2.157 1.73.153-.153.307-.296.351-.329-.066.011-.373.296-.515.46l.033.088c-.34.383-.121.044-.46.405-.066-.033.241-.372.514-.657-.262.252-.547.471-.602.624-.263.219-.033-.087-.35.175-.186.219-.405.548-.679.745v-.011c-.624.526-.8.964-1.38 1.435l.044-.077c-.219.153-.537.559-.909.865.109-.087.23-.131.033.077-.416.35-.646.646-.964.898l-.219.317c-1.347 1.336-6.559 6.724-7.884 8.082l.044-.066c-1.325 1.369-3.209 3.274-5.235 5.344ZM175.709 584.487c2.179.198 4.457.417 6.57.614 1.238.109 2.377.197 3.264.252.46.109 1.095.164 1.576.23-.262-.055-.164-.099.044-.077 1.468.153.11-.044 1.588.077.81.043 2.716.229 4.643.438 2.727.295 5.486.591 6.789.744-.065-.252-.098-.405-.131-.536a40.604 40.604 0 0 1-.668-2.333 67.597 67.597 0 0 1-.307-1.161c-.043-.153-.087-.295-.131-.449a33.94 33.94 0 0 1-.098-.295l.043.076c-.252-.821-1.39-5.573-1.675-6.526l.022.131c-.285-.832-.143-.744-.285-1.412-.088.12-.339-.592-.427-.865h.033c-.132-.417-.471-1.325-.668-2.015l.066.011c-.219-.559-.471-1.643-.581-2.059-.219-.953-.493-2.431-.898-3.669l-.033-.865-.043-.12-1.052-2.661c-.252-.602-1.861 2.037-1.916 1.982.131-.164.263-.329.307-.372-.066.022-.329.339-.449.525l.043.088c-.284.427-.109.066-.416.46-.076-.022.186-.394.427-.712-.23.285-.492.537-.514.701-.23.252-.044-.088-.318.219-.164.241-.339.591-.58.832l-.011-.011c-.559.592-.668 1.051-1.183 1.599l.033-.077c-.197.186-.46.624-.788.975.098-.099.208-.153.043.077-.372.405-.558.722-.843 1.007l-.175.35c-1.172 1.49-5.661 7.491-6.822 9.002l.033-.066c-1.128 1.457-2.76 3.592-4.512 5.891ZM175.523 558.009c-1.172-1.84-2.409-3.778-3.548-5.563-.679-1.04-1.303-2.004-1.796-2.738-.186-.427-.536-.963-.788-1.38.12.241.022.198-.088.011-.777-1.248-.098-.054-.92-1.303-.46-.679-1.478-2.288-2.507-3.942a5526.42 5526.42 0 0 0-3.581-5.815l-.34.427a41.069 41.069 0 0 1-1.434 1.961c-.241.317-.493.646-.734.952-.099.132-.186.252-.274.373-.065.087-.12.175-.175.262l.033-.076c-.493.711-3.548 4.511-4.128 5.322l.098-.099c-.482.734-.504.57-.953 1.095.143 0-.251.635-.427.865l-.011-.022c-.251.351-.766 1.183-1.182 1.763l-.033-.065c-.307.514-1.008 1.379-1.259 1.719-.614.756-1.621 1.872-2.355 2.957l-.657.558-.055.11-1.467 2.463c-.328.57 2.749.23 2.749.307-.208 0-.417 0-.482-.022.055.033.471.055.69.033l.033-.088c.503-.032.12.055.613.044.022.077-.427.088-.832.099.361.011.722.065.865-.022.339.033-.044.087.372.12.285-.022.668-.098 1.007-.054l-.011.011c.811.076 1.249-.121 1.982-.044l-.076.022c.263.043.777-.022 1.248.032-.131-.01-.252-.065.033-.076.548.044.92 0 1.314.055l.383-.077c1.895.011 9.385-.11 11.29-.131l-.076.01c1.894-.01 4.588-.032 7.479-.054ZM917.938 162.453c1.664 1.149 3.395 2.354 5.015 3.471.953.646 1.829 1.237 2.508 1.686.318.296.81.624 1.161.898-.186-.164-.088-.153.065-.044 1.106.789.099.011 1.249.778.635.405 2.08 1.423 3.537 2.464 2.059 1.478 4.139 2.967 5.125 3.679.065-.23.109-.372.142-.493a30.02 30.02 0 0 1 .526-2.179c.098-.361.186-.723.284-1.073.033-.142.066-.285.099-.416.022-.099.033-.186.055-.285v.077c.164-.778 1.412-5.114 1.62-6.012l-.043.12c.153-.799.219-.657.416-1.27-.132.055-.011-.635.054-.887l.022.011c.088-.394.23-1.281.384-1.927l.054.044c.077-.548.373-1.533.46-1.917.252-.865.712-2.179.942-3.361l.361-.712.011-.11.373-2.628c.076-.602-2.42.789-2.453.723.175-.077.361-.143.416-.153-.055-.011-.416.12-.602.219v.087c-.417.208-.121 0-.537.175-.044-.054.329-.23.668-.383-.307.121-.635.208-.734.329-.295.098 0-.088-.361.032-.241.121-.537.318-.843.406v-.011c-.723.23-1.019.547-1.676.744l.055-.054c-.241.054-.657.295-1.073.427.12-.033.241-.033 0 .076-.482.154-.778.329-1.139.427l-.296.197c-1.62.668-7.961 3.45-9.57 4.151l.054-.033a634.611 634.611 0 0 1-6.329 2.727ZM913.098 142.172c1.653-1.171 3.372-2.398 4.971-3.526.931-.668 1.785-1.292 2.442-1.785.383-.197.865-.547 1.238-.788-.22.12-.176.033-.011-.077 1.116-.777.043-.088 1.16-.909.603-.46 2.048-1.478 3.526-2.497 2.092-1.434 4.205-2.88 5.202-3.569-.197-.143-.318-.219-.416-.296a28.957 28.957 0 0 1-1.873-1.237c-.306-.209-.613-.428-.92-.625-.12-.076-.241-.164-.361-.241-.088-.054-.164-.098-.252-.153l.077.022c-.679-.427-4.326-3.066-5.103-3.57l.098.088c-.7-.416-.547-.438-1.051-.822.011.132-.591-.208-.821-.35l.022-.011c-.34-.208-1.128-.646-1.676-1.007l.055-.033c-.482-.263-1.314-.865-1.643-1.084-.722-.537-1.806-1.413-2.836-2.037l-.536-.581-.099-.054-2.343-1.238c-.537-.273-.077 2.541-.154 2.552-.011-.197-.01-.383-.01-.449-.033.055-.033.438 0 .635l.087.033c.055.471-.044.109-.011.569-.066.033-.098-.394-.131-.766.011.328-.022.668.055.799-.011.318-.088-.033-.099.351.033.262.12.613.099.93h-.011c-.033.756.164 1.139.131 1.829l-.022-.077c-.022.241.055.723.033 1.161.011-.131.055-.241.077.022-.011.504.043.843.01 1.216l.088.35c.077 1.752.537 8.662.646 10.414l-.011-.066c.077 1.73.219 4.205.373 6.877ZM911.28 212.015c1.949.515 3.997 1.051 5.891 1.555 1.117.285 2.136.537 2.935.723.394.175.974.317 1.402.449-.23-.088-.143-.121.043-.066 1.314.361.099-.022 1.435.307.734.164 2.442.624 4.172 1.106 2.431.69 4.906 1.379 6.078 1.708-.022-.241-.022-.383-.033-.504a36.395 36.395 0 0 1-.252-2.234l-.099-1.106c-.011-.142-.032-.284-.043-.427-.011-.098-.033-.186-.044-.284l.033.076c-.11-.788-.417-5.289-.537-6.209v.121c-.131-.8-.011-.701-.044-1.336-.098.098-.219-.592-.252-.854l.022.011c-.054-.395-.23-1.282-.295-1.939l.065.022c-.109-.536-.175-1.566-.219-1.96-.054-.898-.076-2.289-.262-3.482l.098-.789-.022-.109-.547-2.595c-.132-.592-2.004 1.565-2.059 1.511.142-.132.285-.263.339-.296-.065.011-.35.252-.492.405l.032.088c-.328.339-.109.033-.449.35-.065-.033.23-.328.504-.591-.252.219-.525.416-.58.558-.252.187-.033-.087-.329.154-.186.197-.394.482-.646.668v-.011c-.602.46-.777.854-1.325 1.27l.044-.066c-.208.132-.515.504-.865.767.099-.077.219-.11.022.066-.394.306-.624.58-.931.788l-.219.285c-1.292 1.182-6.308 5.957-7.589 7.161l.044-.054c-1.259 1.237-3.077 2.934-5.026 4.763ZM889.171 187.935c2.015.186 4.117.383 6.066.558 1.139.099 2.202.186 3.012.23.416.11 1.007.153 1.456.208-.241-.055-.153-.087.033-.065 1.358.142.099-.033 1.468.065.755.044 2.507.219 4.292.405 2.519.274 5.07.548 6.275.679-.055-.23-.088-.372-.121-.492a32.682 32.682 0 0 1-.613-2.158c-.098-.361-.197-.722-.285-1.073-.043-.142-.076-.274-.12-.416-.033-.088-.055-.186-.088-.274l.044.066c-.241-.767-1.281-5.147-1.544-6.034l.022.121c-.263-.767-.131-.69-.263-1.314-.087.109-.317-.548-.394-.8h.022c-.12-.383-.438-1.226-.613-1.861l.065.011c-.197-.515-.438-1.523-.536-1.895-.197-.876-.449-2.245-.832-3.395l-.033-.799-.044-.109-.975-2.464c-.23-.559-1.719 1.872-1.774 1.828.121-.153.241-.306.285-.339-.055.022-.307.307-.416.482l.044.076c-.263.395-.11.055-.384.428-.065-.022.176-.362.395-.658-.208.263-.449.493-.482.647-.208.23-.044-.077-.296.197-.142.23-.306.547-.536.766l-.011-.011c-.515.548-.625.975-1.095 1.479l.022-.077c-.176.164-.428.58-.734.898.087-.088.197-.142.044.066-.34.372-.515.668-.789.93l-.164.318c-1.084 1.38-5.234 6.921-6.297 8.311l.033-.054c-1.007 1.423-2.507 3.394-4.139 5.519ZM868.792 214.643c.964-1.774 1.971-3.635 2.913-5.355a225.508 225.508 0 0 0 1.401-2.672c.263-.339.537-.865.767-1.248-.142.208-.142.11-.044-.066.668-1.193 0-.098.646-1.325.34-.679 1.194-2.223 2.07-3.789a962.904 962.904 0 0 0 3.099-5.497c-.241-.043-.383-.065-.504-.087a31.344 31.344 0 0 1-2.223-.285c-.372-.055-.744-.11-1.095-.164-.142-.022-.285-.033-.427-.055-.099-.011-.197-.022-.285-.022l.077-.011c-.799-.087-5.234-.854-6.154-.964l.12.033c-.81-.065-.679-.153-1.303-.273.066.12-.624.076-.887.043l.011-.022c-.394-.043-1.303-.087-1.949-.164l.033-.055c-.548-.021-1.566-.197-1.96-.251-.887-.165-2.245-.471-3.439-.581l-.745-.284h-.12l-2.65-.077c-.602-.011 1.051 2.321.986 2.354-.099-.175-.187-.339-.198-.394-.011.055.165.405.285.569l.088-.011c.252.395.011.121.241.515-.044.055-.263-.306-.449-.624.153.296.273.613.405.69.131.285-.088.011.066.35.153.23.383.504.492.789h-.011c.307.69.646.952.92 1.588l-.055-.055c.088.23.362.624.537 1.029-.055-.12-.055-.23.077-.011.208.46.416.745.547 1.084l.23.274c.843 1.533 4.293 7.534 5.158 9.067l-.044-.055c.854 1.512 2.07 3.68 3.373 6.012ZM889.007 163.471c-1.084-1.708-2.223-3.493-3.275-5.147a158.9 158.9 0 0 0-1.664-2.529c-.175-.395-.504-.887-.723-1.282.11.23.022.176-.076.011-.723-1.16-.088-.054-.844-1.204-.427-.624-1.368-2.114-2.31-3.647-1.325-2.157-2.672-4.336-3.307-5.376-.154.186-.241.295-.318.394a30.772 30.772 0 0 1-1.325 1.807c-.23.295-.449.591-.679.887-.087.12-.175.23-.252.339-.054.077-.109.164-.164.241l.033-.077c-.46.657-3.285 4.173-3.822 4.917l.088-.087c-.449.679-.46.525-.876 1.007.131 0-.241.58-.394.799l-.011-.021c-.23.328-.701 1.095-1.095 1.62l-.033-.055c-.285.471-.931 1.271-1.172 1.588-.569.701-1.5 1.731-2.168 2.738l-.613.515-.055.098-1.358 2.278c-.307.526 2.54.208 2.54.274-.197 0-.394 0-.449-.011.044.033.428.054.636.033l.032-.088c.471-.033.11.055.57.044.022.065-.394.087-.767.087.329 0 .668.055.8-.022.317.022-.033.088.339.11.263-.022.624-.088.931-.044l-.011.011c.756.066 1.15-.109 1.84-.044l-.077.022c.241.044.723-.011 1.161.022-.121-.011-.23-.066.033-.077.503.044.843 0 1.215.044l.351-.065c1.752.011 8.672-.099 10.436-.121l-.066.011c1.741.033 4.227.022 6.899 0Z" fill="#fff"/></svg>