<?xml version="1.0" standalone="no"?>
<!DOCTYPE svg PUBLIC "-//W3C//DTD SVG 20010904//EN"
 "http://www.w3.org/TR/2001/REC-SVG-20010904/DTD/svg10.dtd">
<svg version="1.0" xmlns="http://www.w3.org/2000/svg"
 width="500.000000pt" height="500.000000pt" viewBox="0 0 500.000000 500.000000"
 preserveAspectRatio="xMidYMid meet">
<metadata>
Created by potrace 1.16, written by Peter Selinger 2001-2019
</metadata>
<g transform="translate(0.000000,500.000000) scale(0.100000,-0.100000)"
fill="#000000" stroke="none">
<path d="M0 2495 l0 -2495 2500 0 2500 0 0 2495 0 2495 -2500 0 -2500 0 0
-2495z m4330 1470 l0 -295 -820 0 -820 0 0 295 0 295 820 0 820 0 0 -295z
m-1840 -37 l0 -203 -292 -292 c-284 -284 -291 -292 -262 -298 85 -19 172 -50
255 -92 76 -38 109 -62 179 -132 97 -98 140 -166 181 -284 100 -290 39 -611
-155 -815 -162 -171 -354 -251 -651 -274 -130 -10 -166 -9 -265 5 -199 29
-328 79 -464 180 -171 126 -288 347 -312 586 l-7 71 276 0 276 0 11 -57 c44
-214 247 -322 501 -269 84 18 133 43 188 96 152 148 118 429 -65 536 -76 45
-98 48 -394 53 l-285 6 -3 166 -2 165 271 277 271 277 -491 0 -491 0 0 243 c0
134 3 247 7 250 3 4 393 7 865 7 l858 0 0 -202z m1810 -803 l0 -265 -505 0
-505 0 0 -315 0 -315 460 0 460 0 0 -255 0 -255 -460 0 -460 0 -2 -437 -3
-438 -287 0 c-159 0 -767 1 -1353 3 l-1065 2 0 290 0 290 1065 0 1065 0 0 980
0 980 795 0 795 0 0 -265z"/>
</g>
</svg>
