<?xml version="1.0" standalone="no"?>
<!DOCTYPE svg PUBLIC "-//W3C//DTD SVG 20010904//EN"
 "http://www.w3.org/TR/2001/REC-SVG-20010904/DTD/svg10.dtd">
<svg version="1.0" xmlns="http://www.w3.org/2000/svg"
 width="4267.000000pt" height="3197.000000pt" viewBox="0 0 4267.000000 3197.000000"
 preserveAspectRatio="xMidYMid meet">
<metadata>
Created by potrace 1.16, written by Peter Selinger 2001-2019
</metadata>
<g transform="translate(0.000000,3197.000000) scale(0.100000,-0.100000)"
fill="#000000" stroke="none">
<path d="M4686 31959 c-1457 -84 -2815 -811 -3686 -1974 -588 -785 -918 -1672
-990 -2660 -14 -199 -14 -22476 1 -22687 59 -856 330 -1668 797 -2383 296
-454 691 -881 1127 -1220 572 -444 1268 -769 1973 -920 363 -79 607 -105 1045
-112 l337 -6 0 12702 0 12701 18691 0 18690 0 -4 968 c-4 1043 -5 1069 -63
1422 -167 1034 -647 1971 -1389 2715 -643 646 -1439 1097 -2316 1314 -246 61
-411 89 -774 133 -77 9 -3892 12 -16700 13 -9130 1 -16662 -1 -16739 -6z"/>
<path d="M8700 18205 l0 -4425 4605 0 4605 0 0 4425 0 4425 -4605 0 -4605 0 0
-4425z"/>
<path d="M21330 18205 l0 -4425 4540 0 4540 0 0 4425 0 4425 -4540 0 -4540 0
0 -4425z"/>
<path d="M33820 18205 l0 -4425 4425 0 4425 0 0 4425 0 4425 -4425 0 -4425 0
0 -4425z"/>
<path d="M8700 5500 l0 -5500 4605 0 4605 0 0 5500 0 5500 -4605 0 -4605 0 0
-5500z"/>
<path d="M21330 5500 l0 -5500 4540 0 4540 0 0 5500 0 5500 -4540 0 -4540 0 0
-5500z"/>
<path d="M33820 5500 l0 -5500 2024 0 c2079 0 2176 2 2486 41 1661 209 3112
1256 3846 2774 282 583 443 1205 484 1865 6 105 10 1282 10 3243 l0 3077
-4425 0 -4425 0 0 -5500z"/>
</g>
</svg>
